  0
SECTION
  2
HEADER
  9
$ACADVER
  1
AC1015
  9
$ACADMAINTVER
 70
     6
  9
$DWGCODEPAGE
  3
ANSI_1252
  9
$INSBASE
 10
0.0
 20
0.0
 30
0.0
  9
$EXTMIN
 10
0.0
 20
0.0
 30
0.0
  9
$EXTMAX
 10
11.0
 20
8.5
 30
0.0
  9
$LIMMIN
 10
0.0
 20
0.0
  9
$LIMMAX
 10
11.0
 20
8.5
  9
$ORTHOMODE
 70
     0
  9
$REGENMODE
 70
     1
  9
$FILLMODE
 70
     1
  9
$QTEXTMODE
 70
     0
  9
$MIRRTEXT
 70
     1
  9
$LTSCALE
 40
1.0
  9
$ATTMODE
 70
     1
  9
$TEXTSIZE
 40
0.125
  9
$TRACEWID
 40
0.05
  9
$TEXTSTYLE
  7
Standard
  9
$CLAYER
  8
0
  9
$CELTYPE
  6
ByLayer
  9
$CECOLOR
 62
   256
  9
$CELTSCALE
 40
1.0
  9
$DISPSILH
 70
     0
  9
$DIMSCALE
 40
1.0
  9
$DIMASZ
 40
0.13
  9
$DIMEXO
 40
0.05
  9
$DIMDLI
 40
0.38
  9
$DIMRND
 40
0.0
  9
$DIMDLE
 40
0.0
  9
$DIMEXE
 40
0.125
  9
$DIMTP
 40
0.0
  9
$DIMTM
 40
0.0
  9
$DIMTXT
 40
0.125
  9
$DIMCEN
 40
0.09
  9
$DIMTSZ
 40
0.0
  9
$DIMTOL
 70
     0
  9
$DIMLIM
 70
     0
  9
$DIMTIH
 70
     1
  9
$DIMTOH
 70
     1
  9
$DIMSE1
 70
     0
  9
$DIMSE2
 70
     0
  9
$DIMTAD
 70
     0
  9
$DIMZIN
 70
     0
  9
$DIMBLK
  1

  9
$DIMASO
 70
     1
  9
$DIMSHO
 70
     1
  9
$DIMPOST
  1

  9
$DIMAPOST
  1

  9
$DIMALT
 70
     0
  9
$DIMALTD
 70
     2
  9
$DIMALTF
 40
25.4
  9
$DIMLFAC
 40
8.0
  9
$DIMTOFL
 70
     0
  9
$DIMTVP
 40
0.0
  9
$DIMTIX
 70
     0
  9
$DIMSOXD
 70
     0
  9
$DIMSAH
 70
     0
  9
$DIMBLK1
  1

  9
$DIMBLK2
  1

  9
$DIMSTYLE
  2
Standard
  9
$DIMCLRD
 70
     0
  9
$DIMCLRE
 70
     0
  9
$DIMCLRT
 70
     0
  9
$DIMTFAC
 40
1.0
  9
$DIMGAP
 40
0.06
  9
$DIMJUST
 70
     0
  9
$DIMSD1
 70
     0
  9
$DIMSD2
 70
     0
  9
$DIMTOLJ
 70
     1
  9
$DIMTZIN
 70
     0
  9
$DIMALTZ
 70
     0
  9
$DIMALTTZ
 70
     0
  9
$DIMUPT
 70
     0
  9
$DIMDEC
 70
     2
  9
$DIMTDEC
 70
     2
  9
$DIMALTU
 70
     2
  9
$DIMALTTD
 70
     2
  9
$DIMTXSTY
  7
Standard
  9
$DIMAUNIT
 70
     0
  9
$DIMADEC
 70
     2
  9
$DIMALTRND
 40
0.0
  9
$DIMAZIN
 70
     0
  9
$DIMDSEP
 70
    46
  9
$DIMATFIT
 70
     3
  9
$DIMFRAC
 70
     0
  9
$DIMLDRBLK
  1

  9
$DIMLUNIT
 70
     2
  9
$DIMLWD
 70
    -2
  9
$DIMLWE
 70
    -2
  9
$DIMTMOVE
 70
     0
  9
$LUNITS
 70
     2
  9
$LUPREC
 70
     2
  9
$SKETCHINC
 40
0.1
  9
$FILLETRAD
 40
0.5
  9
$AUNITS
 70
     0
  9
$AUPREC
 70
     2
  9
$MENU
  1
.
  9
$ELEVATION
 40
0.0
  9
$PELEVATION
 40
0.0
  9
$THICKNESS
 40
0.0
  9
$LIMCHECK
 70
     0
  9
$CHAMFERA
 40
0.0
  9
$CHAMFERB
 40
0.0
  9
$CHAMFERC
 40
0.0
  9
$CHAMFERD
 40
0.0
  9
$SKPOLY
 70
     0
  9
$TDCREATE
 40
2457749.768851181
  9
$TDUCREATE
 40
2457749.977184514
  9
$TDUPDATE
 40
2457749.768851817
  9
$TDUUPDATE
 40
2457749.977185151
  9
$TDINDWG
 40
0.0000000116
  9
$TDUSRTIMER
 40
0.0000000116
  9
$USRTIMER
 70
     1
  9
$ANGBASE
 50
0.0
  9
$ANGDIR
 70
     0
  9
$PDMODE
 70
     0
  9
$PDSIZE
 40
-1.0
  9
$PLINEWID
 40
0.0
  9
$SPLFRAME
 70
     0
  9
$SPLINETYPE
 70
     6
  9
$SPLINESEGS
 70
     8
  9
$HANDSEED
  5
1A6
  9
$SURFTAB1
 70
     6
  9
$SURFTAB2
 70
     6
  9
$SURFTYPE
 70
     6
  9
$SURFU
 70
     6
  9
$SURFV
 70
     6
  9
$UCSBASE
  2

  9
$UCSNAME
  2

  9
$UCSORG
 10
0.0
 20
0.0
 30
0.0
  9
$UCSXDIR
 10
1.0
 20
0.0
 30
0.0
  9
$UCSYDIR
 10
0.0
 20
1.0
 30
0.0
  9
$UCSORTHOREF
  2

  9
$UCSORTHOVIEW
 70
     0
  9
$UCSORGTOP
 10
0.0
 20
0.0
 30
0.0
  9
$UCSORGBOTTOM
 10
0.0
 20
0.0
 30
0.0
  9
$UCSORGLEFT
 10
0.0
 20
0.0
 30
0.0
  9
$UCSORGRIGHT
 10
0.0
 20
0.0
 30
0.0
  9
$UCSORGFRONT
 10
0.0
 20
0.0
 30
0.0
  9
$UCSORGBACK
 10
0.0
 20
0.0
 30
0.0
  9
$PUCSBASE
  2

  9
$PUCSNAME
  2

  9
$PUCSORG
 10
0.0
 20
0.0
 30
0.0
  9
$PUCSXDIR
 10
1.0
 20
0.0
 30
0.0
  9
$PUCSYDIR
 10
0.0
 20
1.0
 30
0.0
  9
$PUCSORTHOREF
  2

  9
$PUCSORTHOVIEW
 70
     0
  9
$PUCSORGTOP
 10
0.0
 20
0.0
 30
0.0
  9
$PUCSORGBOTTOM
 10
0.0
 20
0.0
 30
0.0
  9
$PUCSORGLEFT
 10
0.0
 20
0.0
 30
0.0
  9
$PUCSORGRIGHT
 10
0.0
 20
0.0
 30
0.0
  9
$PUCSORGFRONT
 10
0.0
 20
0.0
 30
0.0
  9
$PUCSORGBACK
 10
0.0
 20
0.0
 30
0.0
  9
$USERI1
 70
     0
  9
$USERI2
 70
     0
  9
$USERI3
 70
     0
  9
$USERI4
 70
     0
  9
$USERI5
 70
     0
  9
$USERR1
 40
0.0
  9
$USERR2
 40
0.0
  9
$USERR3
 40
0.0
  9
$USERR4
 40
0.0
  9
$USERR5
 40
0.0
  9
$WORLDVIEW
 70
     1
  9
$SHADEDGE
 70
     3
  9
$SHADEDIF
 70
    70
  9
$TILEMODE
 70
     1
  9
$MAXACTVP
 70
    64
  9
$PINSBASE
 10
0.0
 20
0.0
 30
0.0
  9
$PLIMCHECK
 70
     0
  9
$PEXTMIN
 10
1.0000000000E+20
 20
1.0000000000E+20
 30
1.0000000000E+20
  9
$PEXTMAX
 10
-1.0000000000E+20
 20
-1.0000000000E+20
 30
-1.0000000000E+20
  9
$PLIMMIN
 10
0.0
 20
0.0
  9
$PLIMMAX
 10
12.0
 20
9.0
  9
$UNITMODE
 70
     0
  9
$VISRETAIN
 70
     1
  9
$PLINEGEN
 70
     0
  9
$PSLTSCALE
 70
     1
  9
$TREEDEPTH
 70
  3020
  9
$CMLSTYLE
  2
Standard
  9
$CMLJUST
 70
     0
  9
$CMLSCALE
 40
1.0
  9
$PROXYGRAPHICS
 70
     1
  9
$MEASUREMENT
 70
     0
  9
$CELWEIGHT
370
    -1
  9
$ENDCAPS
280
     0
  9
$JOINSTYLE
280
     0
  9
$LWDISPLAY
290
     1
  9
$INSUNITS
 70
     1
  9
$HYPERLINKBASE
  1

  9
$STYLESHEET
  1

  9
$XEDIT
290
     1
  9
$CEPSNTYPE
380
     0
  9
$PSTYLEMODE
290
     1
  9
$FINGERPRINTGUID
  2
{D6949D23-D7C3-4333-A10C-EF474BC778EE}
  9
$VERSIONGUID
  2
{FAEB1C32-E019-11D5-929B-00C0DF256EC4}
  9
$EXTNAMES
290
     1
  9
$PSVPSCALE
 40
0.0
  9
$OLESTARTUP
290
     0
  0
ENDSEC
  0
SECTION
  2
CLASSES
  0
CLASS
  1
ACDBDICTIONARYWDFLT
  2
AcDbDictionaryWithDefault
  3
ObjectDBX Classes
 90
        0
280
     0
281
     0
  0
CLASS
  1
VISUALSTYLE
  2
AcDbVisualStyle
  3
ObjectDBX Classes
 90
     4095
280
     0
281
     0
  0
CLASS
  1
MATERIAL
  2
AcDbMaterial
  3
ObjectDBX Classes
 90
     1153
280
     0
281
     0
  0
CLASS
  1
SCALE
  2
AcDbScale
  3
ObjectDBX Classes
 90
     1153
280
     0
281
     0
  0
CLASS
  1
TABLESTYLE
  2
AcDbTableStyle
  3
ObjectDBX Classes
 90
     4095
280
     0
281
     0
  0
CLASS
  1
MLEADERSTYLE
  2
AcDbMLeaderStyle
  3
ACDB_MLEADERSTYLE_CLASS
 90
     4095
280
     0
281
     0
  0
CLASS
  1
SUN
  2
AcDbSun
  3
SCENEOE
 90
     1153
280
     0
281
     0
  0
CLASS
  1
ACDBPLACEHOLDER
  2
AcDbPlaceHolder
  3
ObjectDBX Classes
 90
        0
280
     0
281
     0
  0
CLASS
  1
LAYOUT
  2
AcDbLayout
  3
ObjectDBX Classes
 90
        0
280
     0
281
     0
  0
ENDSEC
  0
SECTION
  2
TABLES
  0
TABLE
  2
VPORT
  5
8
330
0
100
AcDbSymbolTable
 70
     1
  0
VPORT
  5
29
330
8
100
AcDbSymbolTableRecord
100
AcDbViewportTableRecord
  2
*Active
 70
     0
 10
0.0
 20
0.0
 11
1.0
 21
1.0
 12
5.5
 22
4.25
 13
0.0
 23
0.0
 14
0.5
 24
0.5
 15
0.5
 25
0.5
 16
0.0
 26
0.0
 36
1.0
 17
0.0
 27
0.0
 37
0.0
 40
8.5
 41
1.2941176471
 42
50.0
 43
0.0
 44
0.0
 50
0.0
 51
0.0
 71
     0
 72
  2000
 73
     1
 74
     3
 75
     0
 76
     0
 77
     0
 78
     0
281
     0
 65
     1
110
0.0
120
0.0
130
0.0
111
1.0
121
0.0
131
0.0
112
0.0
122
1.0
132
0.0
 79
     0
146
0.0
  0
ENDTAB
  0
TABLE
  2
LTYPE
  5
5
330
0
100
AcDbSymbolTable
 70
     6
  0
LTYPE
  5
14
330
5
100
AcDbSymbolTableRecord
100
AcDbLinetypeTableRecord
  2
ByBlock
 70
     0
  3

 72
    65
 73
     0
 40
0.0
  0
LTYPE
  5
15
330
5
100
AcDbSymbolTableRecord
100
AcDbLinetypeTableRecord
  2
ByLayer
 70
     0
  3

 72
    65
 73
     0
 40
0.0
  0
LTYPE
  5
16
330
5
100
AcDbSymbolTableRecord
100
AcDbLinetypeTableRecord
  2
Continuous
 70
     0
  3
Solid line
 72
    65
 73
     0
 40
0.0
  0
LTYPE
  5
6E
330
5
100
AcDbSymbolTableRecord
100
AcDbLinetypeTableRecord
  2
HIDDEN
 70
     0
  3
Hidden __ __ __ __ __ __ __ __ __ __ __ __ __ __
 72
    65
 73
     2
 40
0.075
 49
0.05
 74
     0
 49
-0.025
 74
     0
  0
LTYPE
  5
6F
330
5
100
AcDbSymbolTableRecord
100
AcDbLinetypeTableRecord
  2
PHANTOM
 70
     0
  3
Phantom ______  __  __  ______  __  __  ______
 72
    65
 73
     6
 40
0.5
 49
0.25
 74
     0
 49
-0.05
 74
     0
 49
0.05
 74
     0
 49
-0.05
 74
     0
 49
0.05
 74
     0
 49
-0.05
 74
     0
  0
LTYPE
  5
70
330
5
100
AcDbSymbolTableRecord
100
AcDbLinetypeTableRecord
  2
CENTER
 70
     0
  3
Center ____ _ ____ _ ____ _ ____ _ ____ _ ____
 72
    65
 73
     4
 40
0.4
 49
0.25
 74
     0
 49
-0.05
 74
     0
 49
0.05
 74
     0
 49
-0.05
 74
     0
  0
LTYPE
  5
71
330
5
100
AcDbSymbolTableRecord
100
AcDbLinetypeTableRecord
  2
CENTERX2
 70
     0
  3
Center (2x) ________  __  ________  __  _____
 72
    65
 73
     4
 40
0.8
 49
0.5
 74
     0
 49
-0.1
 74
     0
 49
0.1
 74
     0
 49
-0.1
 74
     0
  0
LTYPE
  5
72
330
5
100
AcDbSymbolTableRecord
100
AcDbLinetypeTableRecord
  2
DOT2
 70
     0
  3
Dot (.5x) ........................................
 72
    65
 73
     2
 40
0.025
 49
0.0
 74
     0
 49
-0.025
 74
     0
  0
ENDTAB
  0
TABLE
  2
LAYER
  5
2
330
0
100
AcDbSymbolTable
 70
     1
  0
LAYER
  5
10
330
2
100
AcDbSymbolTableRecord
100
AcDbLayerTableRecord
  2
0
 70
     0
 62
     7
  6
Continuous
370
    -3
390
F
  0
ENDTAB
  0
TABLE
  2
STYLE
  5
3
330
0
100
AcDbSymbolTable
 70
     2
  0
STYLE
  5
11
330
3
100
AcDbSymbolTableRecord
100
AcDbTextStyleTableRecord
  2
Standard
 70
     0
 40
0.0
 41
1.0
 50
0.0
 71
     0
 42
0.125
  3
txt
  4

  0
STYLE
  5
1A3
330
3
100
AcDbSymbolTableRecord
100
AcDbTextStyleTableRecord
  2
SLDTEXTSTYLE0
 70
     0
 40
0.0
 41
0.7
 50
0.0
 71
     0
 42
0.125
  3
TXT
  4

  0
ENDTAB
  0
TABLE
  2
VIEW
  5
6
330
0
100
AcDbSymbolTable
 70
     0
  0
ENDTAB
  0
TABLE
  2
UCS
  5
7
330
0
100
AcDbSymbolTable
 70
     0
  0
ENDTAB
  0
TABLE
  2
APPID
  5
9
330
0
100
AcDbSymbolTable
 70
     1
  0
APPID
  5
12
330
9
100
AcDbSymbolTableRecord
100
AcDbRegAppTableRecord
  2
ACAD
 70
     0
  0
ENDTAB
  0
TABLE
  2
DIMSTYLE
  5
A
330
0
100
AcDbSymbolTable
 70
     1
100
AcDbDimStyleTable
  0
DIMSTYLE
105
27
330
A
100
AcDbSymbolTableRecord
100
AcDbDimStyleTableRecord
  2
Standard
 70
     0
178
     0
340
11
  0
ENDTAB
  0
TABLE
  2
BLOCK_RECORD
  5
1
330
0
100
AcDbSymbolTable
 70
     1
  0
BLOCK_RECORD
  5
1F
330
1
100
AcDbSymbolTableRecord
100
AcDbBlockTableRecord
  2
*Model_Space
340
22
  0
BLOCK_RECORD
  5
1B
330
1
100
AcDbSymbolTableRecord
100
AcDbBlockTableRecord
  2
*Paper_Space
340
1E
  0
BLOCK_RECORD
  5
23
330
1
100
AcDbSymbolTableRecord
100
AcDbBlockTableRecord
  2
*Paper_Space0
340
26
  0
ENDTAB
  0
ENDSEC
  0
SECTION
  2
BLOCKS
  0
BLOCK
  5
20
330
1F
100
AcDbEntity
  8
0
100
AcDbBlockBegin
  2
*Model_Space
 70
     0
 10
0.0
 20
0.0
 30
0.0
  3
*Model_Space
  1

  0
ENDBLK
  5
21
330
1F
100
AcDbEntity
  8
0
100
AcDbBlockEnd
  0
BLOCK
  5
1C
330
1B
100
AcDbEntity
 67
     1
  8
0
100
AcDbBlockBegin
  2
*Paper_Space
 70
     0
 10
0.0
 20
0.0
 30
0.0
  3
*Paper_Space
  1

  0
ENDBLK
  5
1D
330
1B
100
AcDbEntity
 67
     1
  8
0
100
AcDbBlockEnd
  0
BLOCK
  5
24
330
23
100
AcDbEntity
  8
0
100
AcDbBlockBegin
  2
*Paper_Space0
 70
     0
 10
0.0
 20
0.0
 30
0.0
  3
*Paper_Space0
  1

  0
ENDBLK
  5
25
330
23
100
AcDbEntity
  8
0
100
AcDbBlockEnd
  0
ENDSEC
  0
SECTION
  2
ENTITIES
  0
CIRCLE
  5
73
330
1F
100
AcDbEntity
  8
0
  6
Continuous
 62
     7
370
    15
100
AcDbCircle
 10
1.2094778025
 20
6.9156359052
 30
0.0
 40
0.1721874999999999
  0
CIRCLE
  5
74
330
1F
100
AcDbEntity
  8
0
  6
Continuous
 62
     7
370
    15
100
AcDbCircle
 10
1.6966170922
 20
6.0718859052
 30
0.0
 40
0.1721875000000002
  0
CIRCLE
  5
75
330
1F
100
AcDbEntity
  8
0
  6
Continuous
 62
     7
370
    15
100
AcDbCircle
 10
2.1837563818
 20
6.9156359052
 30
0.0
 40
0.1721875000000002
  0
CIRCLE
  5
76
330
1F
100
AcDbEntity
  8
0
  6
Continuous
 62
     7
370
    15
100
AcDbCircle
 10
1.6966170922
 20
7.1968859052
 30
0.0
 40
0.1721874999999999
  0
CIRCLE
  5
77
330
1F
100
AcDbEntity
  8
0
  6
Continuous
 62
     7
370
    15
100
AcDbCircle
 10
1.6966170922
 20
6.6343859052
 30
0.0
 40
0.8125
  0
CIRCLE
  5
78
330
1F
100
AcDbEntity
  8
0
  6
Continuous
 62
     7
370
    15
100
AcDbCircle
 10
1.6966170922
 20
6.6343859052
 30
0.0
 40
0.0596874999999999
  0
CIRCLE
  5
79
330
1F
100
AcDbEntity
  8
0
  6
Continuous
 62
     7
370
    15
100
AcDbCircle
 10
2.1837563818
 20
6.3531359052
 30
0.0
 40
0.1721875000000002
  0
CIRCLE
  5
7A
330
1F
100
AcDbEntity
  8
0
  6
Continuous
 62
     7
370
    15
100
AcDbCircle
 10
1.8138045922
 20
6.6343859052
 30
0.0
 40
0.0127499999999998
  0
CIRCLE
  5
7B
330
1F
100
AcDbEntity
  8
0
  6
Continuous
 62
     7
370
    15
100
AcDbCircle
 10
1.7552108422
 20
6.7358732572
 30
0.0
 40
0.01275
  0
CIRCLE
  5
7C
330
1F
100
AcDbEntity
  8
0
  6
Continuous
 62
     7
370
    15
100
AcDbCircle
 10
1.5794295922
 20
6.6343859052
 30
0.0
 40
0.01275
  0
CIRCLE
  5
7D
330
1F
100
AcDbEntity
  8
0
  6
Continuous
 62
     7
370
    15
100
AcDbCircle
 10
1.6380233422
 20
6.5328985532
 30
0.0
 40
0.01275
  0
CIRCLE
  5
7E
330
1F
100
AcDbEntity
  8
0
  6
Continuous
 62
     7
370
    15
100
AcDbCircle
 10
1.7552108422
 20
6.5328985532
 30
0.0
 40
0.01275
  0
CIRCLE
  5
7F
330
1F
100
AcDbEntity
  8
0
  6
Continuous
 62
     7
370
    15
100
AcDbCircle
 10
1.6380233422
 20
6.7358732572
 30
0.0
 40
0.01275
  0
CIRCLE
  5
80
330
1F
100
AcDbEntity
  8
0
  6
Continuous
 62
     7
370
    15
100
AcDbCircle
 10
1.2094778025
 20
6.3531359052
 30
0.0
 40
0.1721875000000002
  0
CIRCLE
  5
81
330
1F
100
AcDbEntity
  8
0
  6
Continuous
 62
     7
370
    15
100
AcDbCircle
 10
1.6966170922
 20
7.1968859052
 30
0.0
 40
0.1562499999999998
  0
CIRCLE
  5
82
330
1F
100
AcDbEntity
  8
0
  6
Continuous
 62
     7
370
    15
100
AcDbCircle
 10
1.6966170922
 20
7.1968859052
 30
0.0
 40
0.1718749999999997
  0
CIRCLE
  5
83
330
1F
100
AcDbEntity
  8
0
  6
Continuous
 62
     7
370
    15
100
AcDbCircle
 10
1.6966170922
 20
6.0718859052
 30
0.0
 40
0.15625
  0
CIRCLE
  5
84
330
1F
100
AcDbEntity
  8
0
  6
Continuous
 62
     7
370
    15
100
AcDbCircle
 10
1.6966170922
 20
6.0718859052
 30
0.0
 40
0.1718750000000005
  0
CIRCLE
  5
85
330
1F
100
AcDbEntity
  8
0
  6
Continuous
 62
     7
370
    15
100
AcDbCircle
 10
1.2094778025
 20
6.3531359052
 30
0.0
 40
0.1562499999999996
  0
CIRCLE
  5
86
330
1F
100
AcDbEntity
  8
0
  6
Continuous
 62
     7
370
    15
100
AcDbCircle
 10
1.2094778025
 20
6.3531359052
 30
0.0
 40
0.1718750000000001
  0
CIRCLE
  5
87
330
1F
100
AcDbEntity
  8
0
  6
Continuous
 62
     7
370
    15
100
AcDbCircle
 10
1.2094778025
 20
6.9156359052
 30
0.0
 40
0.171875
  0
CIRCLE
  5
88
330
1F
100
AcDbEntity
  8
0
  6
Continuous
 62
     7
370
    15
100
AcDbCircle
 10
1.2094778025
 20
6.9156359052
 30
0.0
 40
0.15625
  0
CIRCLE
  5
89
330
1F
100
AcDbEntity
  8
0
  6
Continuous
 62
     7
370
    15
100
AcDbCircle
 10
2.1837563818
 20
6.9156359052
 30
0.0
 40
0.1562500000000008
  0
CIRCLE
  5
8A
330
1F
100
AcDbEntity
  8
0
  6
Continuous
 62
     7
370
    15
100
AcDbCircle
 10
2.1837563818
 20
6.9156359052
 30
0.0
 40
0.1718750000000004
  0
CIRCLE
  5
8B
330
1F
100
AcDbEntity
  8
0
  6
Continuous
 62
     7
370
    15
100
AcDbCircle
 10
2.1837563818
 20
6.3531359052
 30
0.0
 40
0.15625
  0
CIRCLE
  5
8C
330
1F
100
AcDbEntity
  8
0
  6
Continuous
 62
     7
370
    15
100
AcDbCircle
 10
2.1837563818
 20
6.3531359052
 30
0.0
 40
0.171875
  0
LINE
  5
8D
330
1F
100
AcDbEntity
  8
0
  6
Continuous
 62
     7
370
    15
100
AcDbLine
 10
5.5001742612
 20
7.4468859052
 30
0.0
 11
5.4689242612
 21
7.4468859052
 31
0.0
  0
LINE
  5
8E
330
1F
100
AcDbEntity
  8
0
  6
Continuous
 62
     7
370
    15
100
AcDbLine
 10
5.4689242612
 20
5.8218859052
 30
0.0
 11
5.5001742612
 21
5.8218859052
 31
0.0
  0
LINE
  5
8F
330
1F
100
AcDbEntity
  8
0
  6
Continuous
 62
     7
370
    15
100
AcDbLine
 10
7.0001742612
 20
7.3687609052
 30
0.0
 11
5.5001742612
 21
7.3687609052
 31
0.0
  0
LINE
  5
90
330
1F
100
AcDbEntity
  8
0
  6
Continuous
 62
     7
370
    15
100
AcDbLine
 10
5.4689242612
 20
7.3687609052
 30
0.0
 11
4.0314242612
 21
7.3687609052
 31
0.0
  0
LINE
  5
91
330
1F
100
AcDbEntity
  8
0
  6
Continuous
 62
     7
370
    15
100
AcDbLine
 10
4.0314242612
 20
5.9000109052
 30
0.0
 11
5.4689242612
 21
5.9000109052
 31
0.0
  0
LINE
  5
92
330
1F
100
AcDbEntity
  8
0
  6
Continuous
 62
     7
370
    15
100
AcDbLine
 10
5.5001742612
 20
5.9000109052
 30
0.0
 11
7.0001742612
 21
5.9000109052
 31
0.0
  0
LINE
  5
93
330
1F
100
AcDbEntity
  8
0
  6
Continuous
 62
     7
370
    15
100
AcDbLine
 10
7.0001742612
 20
7.0875109052
 30
0.0
 11
5.5001742612
 21
7.0875109052
 31
0.0
  0
LINE
  5
94
330
1F
100
AcDbEntity
  8
0
  6
Continuous
 62
     7
370
    15
100
AcDbLine
 10
5.4689242612
 20
7.0875109052
 30
0.0
 11
4.0314242612
 21
7.0875109052
 31
0.0
  0
LINE
  5
95
330
1F
100
AcDbEntity
  8
0
  6
Continuous
 62
     7
370
    15
100
AcDbLine
 10
4.0314242612
 20
6.7437609052
 30
0.0
 11
5.4689242612
 21
6.7437609052
 31
0.0
  0
LINE
  5
96
330
1F
100
AcDbEntity
  8
0
  6
Continuous
 62
     7
370
    15
100
AcDbLine
 10
5.5001742612
 20
6.7437609052
 30
0.0
 11
7.0001742612
 21
6.7437609052
 31
0.0
  0
LINE
  5
97
330
1F
100
AcDbEntity
  8
0
  6
Continuous
 62
     7
370
    15
100
AcDbLine
 10
7.0001742612
 20
6.5250109052
 30
0.0
 11
5.5001742612
 21
6.5250109052
 31
0.0
  0
LINE
  5
98
330
1F
100
AcDbEntity
  8
0
  6
Continuous
 62
     7
370
    15
100
AcDbLine
 10
5.4689242612
 20
6.5250109052
 30
0.0
 11
4.0314242612
 21
6.5250109052
 31
0.0
  0
LINE
  5
99
330
1F
100
AcDbEntity
  8
0
  6
Continuous
 62
     7
370
    15
100
AcDbLine
 10
4.0314242612
 20
6.1812609052
 30
0.0
 11
5.4689242612
 21
6.1812609052
 31
0.0
  0
LINE
  5
9A
330
1F
100
AcDbEntity
  8
0
  6
Continuous
 62
     7
370
    15
100
AcDbLine
 10
5.5001742612
 20
6.1812609052
 30
0.0
 11
7.0001742612
 21
6.1812609052
 31
0.0
  0
LINE
  5
9B
330
1F
100
AcDbEntity
  8
0
  6
Continuous
 62
     7
370
    15
100
AcDbLine
 10
7.0314242612
 20
6.6346887972
 30
0.0
 11
7.0001742612
 21
6.6346887972
 31
0.0
  0
LINE
  5
9C
330
1F
100
AcDbEntity
  8
0
  6
Continuous
 62
     7
370
    15
100
AcDbLine
 10
7.0001742612
 20
6.0465095198
 30
0.0
 11
7.0314242612
 21
6.0465095198
 31
0.0
  0
LINE
  5
9D
330
1F
100
AcDbEntity
  8
0
  6
Continuous
 62
     7
370
    15
100
AcDbLine
 10
7.0314242612
 20
7.3223613437
 30
0.0
 11
7.0001742612
 21
7.3223613437
 31
0.0
  0
LINE
  5
9E
330
1F
100
AcDbEntity
  8
0
  6
Continuous
 62
     7
370
    15
100
AcDbLine
 10
7.0001742612
 20
5.8218859052
 30
0.0
 11
7.0314242612
 21
5.8218859052
 31
0.0
  0
LINE
  5
9F
330
1F
100
AcDbEntity
  8
0
  6
Continuous
 62
     7
370
    15
100
AcDbLine
 10
7.0314242612
 20
7.4468859052
 30
0.0
 11
7.0001742612
 21
7.4468859052
 31
0.0
  0
LINE
  5
A0
330
1F
100
AcDbEntity
  8
0
  6
Continuous
 62
     7
370
    15
100
AcDbLine
 10
5.5001742612
 20
6.6343859052
 30
0.0
 11
5.5001742612
 21
7.4468859052
 31
0.0
  0
LINE
  5
A1
330
1F
100
AcDbEntity
  8
0
  6
Continuous
 62
     7
370
    15
100
AcDbLine
 10
5.5001742612
 20
5.8218859052
 30
0.0
 11
5.5001742612
 21
6.6343859052
 31
0.0
  0
LINE
  5
A2
330
1F
100
AcDbEntity
  8
0
  6
Continuous
 62
     7
370
    15
100
AcDbLine
 10
5.4689242612
 20
6.6343859052
 30
0.0
 11
5.4689242612
 21
7.4468859052
 31
0.0
  0
LINE
  5
A3
330
1F
100
AcDbEntity
  8
0
  6
Continuous
 62
     7
370
    15
100
AcDbLine
 10
5.4689242612
 20
5.8218859052
 30
0.0
 11
5.4689242612
 21
6.6343859052
 31
0.0
  0
LINE
  5
A4
330
1F
100
AcDbEntity
  8
0
  6
Continuous
 62
     7
370
    15
100
AcDbLine
 10
4.0314242612
 20
7.0875109052
 30
0.0
 11
4.0314242612
 21
7.3687609052
 31
0.0
  0
LINE
  5
A5
330
1F
100
AcDbEntity
  8
0
  6
Continuous
 62
     7
370
    15
100
AcDbLine
 10
4.0314242612
 20
5.9000109052
 30
0.0
 11
4.0314242612
 21
6.1812609052
 31
0.0
  0
LINE
  5
A6
330
1F
100
AcDbEntity
  8
0
  6
Continuous
 62
     7
370
    15
100
AcDbLine
 10
4.0314242612
 20
6.7437609052
 30
0.0
 11
4.0314242612
 21
7.0875109052
 31
0.0
  0
LINE
  5
A7
330
1F
100
AcDbEntity
  8
0
  6
Continuous
 62
     7
370
    15
100
AcDbLine
 10
4.0314242612
 20
6.1812609052
 30
0.0
 11
4.0314242612
 21
6.5250109052
 31
0.0
  0
LINE
  5
A8
330
1F
100
AcDbEntity
  8
0
  6
Continuous
 62
     7
370
    15
100
AcDbLine
 10
7.0314242612
 20
6.5928360613
 30
0.0
 11
7.0001742612
 21
6.5928360613
 31
0.0
  0
LINE
  5
A9
330
1F
100
AcDbEntity
  8
0
  6
Continuous
 62
     7
370
    15
100
AcDbLine
 10
7.0001742612
 20
6.5928360613
 30
0.0
 11
7.0001742612
 21
6.6299604323
 31
0.0
  0
LINE
  5
AA
330
1F
100
AcDbEntity
  8
0
  6
Continuous
 62
     7
370
    15
100
AcDbLine
 10
7.0001742612
 20
6.6299604323
 30
0.0
 11
7.0314242612
 21
6.6299604323
 31
0.0
  0
LINE
  5
AB
330
1F
100
AcDbEntity
  8
0
  6
Continuous
 62
     7
370
    15
100
AcDbLine
 10
7.0314242612
 20
6.6299604323
 30
0.0
 11
7.0314242612
 21
6.5928360613
 31
0.0
  0
LINE
  5
AC
330
1F
100
AcDbEntity
  8
0
  6
Continuous
 62
     7
370
    15
100
AcDbLine
 10
7.0001742612
 20
6.0595136829
 30
0.0
 11
7.0314242612
 21
6.0595136829
 31
0.0
  0
LINE
  5
AD
330
1F
100
AcDbEntity
  8
0
  6
Continuous
 62
     7
370
    15
100
AcDbLine
 10
7.0001742612
 20
6.0595136829
 30
0.0
 11
7.0001742612
 21
6.5928360613
 31
0.0
  0
LINE
  5
AE
330
1F
100
AcDbEntity
  8
0
  6
Continuous
 62
     7
370
    15
100
AcDbLine
 10
7.0314242612
 20
6.0595136829
 30
0.0
 11
7.0314242612
 21
6.5928360613
 31
0.0
  0
SPLINE
  5
AF
330
1F
100
AcDbEntity
  8
0
  6
Continuous
 62
     7
370
    15
100
AcDbSpline
210
0.0
220
0.0
230
1.0
 70
    24
 71
     3
 72
     9
 73
     5
 74
     0
 42
0.000000001
 43
0.00000001
 40
0.0
 40
0.0
 40
0.0
 40
0.0
 40
0.353964708651357
 40
1.0
 40
1.0
 40
1.0
 40
1.0
 10
7.000174261229517
 20
6.633901625312578
 30
0.0
 10
7.000174261229517
 20
6.634120571639851
 30
0.0
 10
7.000174261229517
 20
6.634739125755336
 30
0.0
 10
7.000174261229517
 20
6.631835972072332
 30
0.0
 10
7.000174261229517
 20
6.629960432336904
 30
0.0
  0
SPLINE
  5
B0
330
1F
100
AcDbEntity
  8
0
  6
Continuous
 62
     7
370
    15
100
AcDbSpline
210
0.0
220
0.0
230
1.0
 70
    24
 71
     3
 72
     9
 73
     5
 74
     0
 42
0.000000001
 43
0.00000001
 40
0.0
 40
0.0
 40
0.0
 40
0.0
 40
0.3539647086513694
 40
1.0
 40
1.0
 40
1.0
 40
1.0
 10
7.031424261229517
 20
6.633901625312578
 30
0.0
 10
7.031424261229517
 20
6.634120571639851
 30
0.0
 10
7.031424261229517
 20
6.634739125755336
 30
0.0
 10
7.031424261229517
 20
6.631835972072332
 30
0.0
 10
7.031424261229517
 20
6.629960432336904
 30
0.0
  0
LINE
  5
B1
330
1F
100
AcDbEntity
  8
0
  6
Continuous
 62
     7
370
    15
100
AcDbLine
 10
7.0314242612
 20
6.820163277
 30
0.0
 11
7.0001742612
 21
6.820163277
 31
0.0
  0
LINE
  5
B2
330
1F
100
AcDbEntity
  8
0
  6
Continuous
 62
     7
370
    15
100
AcDbLine
 10
7.0001742612
 20
6.844200871
 30
0.0
 11
7.0314242612
 21
6.844200871
 31
0.0
  0
LINE
  5
B3
330
1F
100
AcDbEntity
  8
0
  6
Continuous
 62
     7
370
    15
100
AcDbLine
 10
7.0001742612
 20
6.820163277
 30
0.0
 11
7.0001742612
 21
6.844200871
 31
0.0
  0
LINE
  5
B4
330
1F
100
AcDbEntity
  8
0
  6
Continuous
 62
     7
370
    15
100
AcDbLine
 10
7.0314242612
 20
6.844200871
 30
0.0
 11
7.0314242612
 21
6.820163277
 31
0.0
  0
LINE
  5
B5
330
1F
100
AcDbEntity
  8
0
  6
Continuous
 62
     7
370
    15
100
AcDbLine
 10
7.0314242612
 20
7.3163359617
 30
0.0
 11
7.0001742612
 21
7.3163359617
 31
0.0
  0
LINE
  5
B6
330
1F
100
AcDbEntity
  8
0
  6
Continuous
 62
     7
370
    15
100
AcDbLine
 10
7.0001742612
 20
6.844200871
 30
0.0
 11
7.0001742612
 21
7.3163359617
 31
0.0
  0
LINE
  5
B7
330
1F
100
AcDbEntity
  8
0
  6
Continuous
 62
     7
370
    15
100
AcDbLine
 10
7.0314242612
 20
6.844200871
 30
0.0
 11
7.0314242612
 21
7.3163359617
 31
0.0
  0
LINE
  5
B8
330
1F
100
AcDbEntity
  8
0
  6
Continuous
 62
     7
370
    15
100
AcDbLine
 10
7.0314242612
 20
6.7147776783
 30
0.0
 11
7.0001742612
 21
6.7147776783
 31
0.0
  0
SPLINE
  5
B9
330
1F
100
AcDbEntity
  8
0
  6
Continuous
 62
     7
370
    15
100
AcDbSpline
210
0.0
220
0.0
230
1.0
 70
    24
 71
     3
 72
    11
 73
     7
 74
     0
 42
0.000000001
 43
0.00000001
 40
0.0
 40
0.0
 40
0.0
 40
0.0
 40
0.270961667408094
 40
0.5444933586610516
 40
0.7669211993742517
 40
1.0
 40
1.0
 40
1.0
 40
1.0
 10
7.000174261229517
 20
6.714777678250482
 30
0.0
 10
7.000174261229517
 20
6.722039910108708
 30
0.0
 10
7.000174261229517
 20
6.736633254819361
 30
0.0
 10
7.000174261229517
 20
6.763366845872444
 30
0.0
 10
7.000174261229517
 20
6.791370397363939
 30
0.0
 10
7.000174261229517
 20
6.810417195474244
 30
0.0
 10
7.000174261229517
 20
6.820163276994068
 30
0.0
  0
SPLINE
  5
BA
330
1F
100
AcDbEntity
  8
0
  6
Continuous
 62
     7
370
    15
100
AcDbSpline
210
0.0
220
0.0
230
1.0
 70
    24
 71
     3
 72
    11
 73
     7
 74
     0
 42
0.000000001
 43
0.00000001
 40
0.0
 40
0.0
 40
0.0
 40
0.0
 40
0.270961667408094
 40
0.5444933586610516
 40
0.7669211993742517
 40
1.0
 40
1.0
 40
1.0
 40
1.0
 10
7.031424261229517
 20
6.714777678250482
 30
0.0
 10
7.031424261229517
 20
6.722039910108708
 30
0.0
 10
7.031424261229517
 20
6.736633254819361
 30
0.0
 10
7.031424261229517
 20
6.763366845872444
 30
0.0
 10
7.031424261229517
 20
6.791370397363939
 30
0.0
 10
7.031424261229517
 20
6.810417195474244
 30
0.0
 10
7.031424261229517
 20
6.820163276994068
 30
0.0
  0
LINE
  5
BB
330
1F
100
AcDbEntity
  8
0
  6
Continuous
 62
     7
370
    15
100
AcDbLine
 10
7.0001742612
 20
6.7147776783
 30
0.0
 11
7.0001742612
 21
6.6351840137
 31
0.0
  0
LINE
  5
BC
330
1F
100
AcDbEntity
  8
0
  6
Continuous
 62
     7
370
    15
100
AcDbLine
 10
7.0314242612
 20
6.7147776783
 30
0.0
 11
7.0314242612
 21
6.6351840137
 31
0.0
  0
LINE
  5
BD
330
1F
100
AcDbEntity
  8
0
  6
Continuous
 62
     7
370
    15
100
AcDbLine
 10
7.0314242612
 20
6.0488666131
 30
0.0
 11
7.0001742612
 21
6.0488666131
 31
0.0
  0
LINE
  5
BE
330
1F
100
AcDbEntity
  8
0
  6
Continuous
 62
     7
370
    15
100
AcDbLine
 10
7.0001742612
 20
6.0488666131
 30
0.0
 11
7.0001742612
 21
6.0595136829
 31
0.0
  0
LINE
  5
BF
330
1F
100
AcDbEntity
  8
0
  6
Continuous
 62
     7
370
    15
100
AcDbLine
 10
7.0314242612
 20
6.0595136829
 30
0.0
 11
7.0314242612
 21
6.0488666131
 31
0.0
  0
SPLINE
  5
C0
330
1F
100
AcDbEntity
  8
0
  6
Continuous
 62
     7
370
    15
100
AcDbSpline
210
0.0
220
0.0
230
1.0
 70
    24
 71
     3
 72
     9
 73
     5
 74
     0
 42
0.000000001
 43
0.00000001
 40
0.0
 40
0.0
 40
0.0
 40
0.0
 40
0.0864638908083097
 40
1.0
 40
1.0
 40
1.0
 40
1.0
 10
7.000174261229517
 20
6.046684382621241
 30
0.0
 10
7.000174261229517
 20
6.046626846295402
 30
0.0
 10
7.000174261229517
 20
6.04596140867397
 30
0.0
 10
7.000174261229517
 20
6.047479647302705
 30
0.0
 10
7.000174261229517
 20
6.048866613112423
 30
0.0
  0
SPLINE
  5
C1
330
1F
100
AcDbEntity
  8
0
  6
Continuous
 62
     7
370
    15
100
AcDbSpline
210
0.0
220
0.0
230
1.0
 70
    24
 71
     3
 72
     9
 73
     5
 74
     0
 42
0.000000001
 43
0.00000001
 40
0.0
 40
0.0
 40
0.0
 40
0.0
 40
0.0864638908083097
 40
1.0
 40
1.0
 40
1.0
 40
1.0
 10
7.031424261229517
 20
6.046684382621241
 30
0.0
 10
7.031424261229517
 20
6.046626846295402
 30
0.0
 10
7.031424261229517
 20
6.04596140867397
 30
0.0
 10
7.031424261229517
 20
6.047479647302705
 30
0.0
 10
7.031424261229517
 20
6.048866613112423
 30
0.0
  0
LINE
  5
C2
330
1F
100
AcDbEntity
  8
0
  6
Continuous
 62
     7
370
    15
100
AcDbLine
 10
7.0001742612
 20
7.3163359617
 30
0.0
 11
7.0001742612
 21
7.3223613437
 31
0.0
  0
LINE
  5
C3
330
1F
100
AcDbEntity
  8
0
  6
Continuous
 62
     7
370
    15
100
AcDbLine
 10
7.0314242612
 20
7.3223613437
 30
0.0
 11
7.0314242612
 21
7.3163359617
 31
0.0
  0
LINE
  5
C4
330
1F
100
AcDbEntity
  8
0
  6
Continuous
 62
     7
370
    15
100
AcDbLine
 10
7.0314242612
 20
5.9885877966
 30
0.0
 11
7.0001742612
 21
5.9885877966
 31
0.0
  0
LINE
  5
C5
330
1F
100
AcDbEntity
  8
0
  6
Continuous
 62
     7
370
    15
100
AcDbLine
 10
7.0001742612
 20
6.0451056648
 30
0.0
 11
7.0001742612
 21
5.9885877966
 31
0.0
  0
LINE
  5
C6
330
1F
100
AcDbEntity
  8
0
  6
Continuous
 62
     7
370
    15
100
AcDbLine
 10
7.0314242612
 20
6.0451056149
 30
0.0
 11
7.0314242612
 21
5.9885877966
 31
0.0
  0
LINE
  5
C7
330
1F
100
AcDbEntity
  8
0
  6
Continuous
 62
     7
370
    15
100
AcDbLine
 10
7.0314242612
 20
5.9108860048
 30
0.0
 11
7.0001742612
 21
5.9108860048
 31
0.0
  0
LINE
  5
C8
330
1F
100
AcDbEntity
  8
0
  6
Continuous
 62
     7
370
    15
100
AcDbLine
 10
7.0001742612
 20
5.9506988763
 30
0.0
 11
7.0314242612
 21
5.9506988763
 31
0.0
  0
LINE
  5
C9
330
1F
100
AcDbEntity
  8
0
  6
Continuous
 62
     7
370
    15
100
AcDbLine
 10
7.0001742612
 20
5.9108860048
 30
0.0
 11
7.0001742612
 21
5.9506988763
 31
0.0
  0
LINE
  5
CA
330
1F
100
AcDbEntity
  8
0
  6
Continuous
 62
     7
370
    15
100
AcDbLine
 10
7.0314242612
 20
5.9506988763
 30
0.0
 11
7.0314242612
 21
5.9108860048
 31
0.0
  0
SPLINE
  5
CB
330
1F
100
AcDbEntity
  8
0
  6
Continuous
 62
     7
370
    15
100
AcDbSpline
210
0.0
220
0.0
230
1.0
 70
    24
 71
     3
 72
     9
 73
     5
 74
     0
 42
0.000000001
 43
0.00000001
 40
0.0
 40
0.0
 40
0.0
 40
0.0
 40
0.5736392582027335
 40
1.0
 40
1.0
 40
1.0
 40
1.0
 10
7.000174261229517
 20
5.98858779664569
 30
0.0
 10
7.000174261229517
 20
5.981936832109024
 30
0.0
 10
7.000174261229517
 20
5.970342499187144
 30
0.0
 10
7.000174261229517
 20
5.956570651476101
 30
0.0
 10
7.000174261229517
 20
5.950698876270101
 30
0.0
  0
SPLINE
  5
CC
330
1F
100
AcDbEntity
  8
0
  6
Continuous
 62
     7
370
    15
100
AcDbSpline
210
0.0
220
0.0
230
1.0
 70
    24
 71
     3
 72
     9
 73
     5
 74
     0
 42
0.000000001
 43
0.00000001
 40
0.0
 40
0.0
 40
0.0
 40
0.0
 40
0.5736392582027335
 40
1.0
 40
1.0
 40
1.0
 40
1.0
 10
7.031424261229517
 20
5.98858779664569
 30
0.0
 10
7.031424261229517
 20
5.981936832109024
 30
0.0
 10
7.031424261229517
 20
5.970342499187144
 30
0.0
 10
7.031424261229517
 20
5.956570651476101
 30
0.0
 10
7.031424261229517
 20
5.950698876270101
 30
0.0
  0
LINE
  5
CD
330
1F
100
AcDbEntity
  8
0
  6
Continuous
 62
     7
370
    15
100
AcDbLine
 10
7.0001742612
 20
5.8218859052
 30
0.0
 11
7.0001742612
 21
5.9108860048
 31
0.0
  0
LINE
  5
CE
330
1F
100
AcDbEntity
  8
0
  6
Continuous
 62
     7
370
    15
100
AcDbLine
 10
7.0314242612
 20
5.8218859052
 30
0.0
 11
7.0314242612
 21
5.9108860048
 31
0.0
  0
LINE
  5
CF
330
1F
100
AcDbEntity
  8
0
  6
Continuous
 62
     7
370
    15
100
AcDbLine
 10
7.0314242612
 20
7.4056825691
 30
0.0
 11
7.0001742612
 21
7.4056825691
 31
0.0
  0
SPLINE
  5
D0
330
1F
100
AcDbEntity
  8
0
  6
Continuous
 62
     7
370
    15
100
AcDbSpline
210
0.0
220
0.0
230
1.0
 70
    24
 71
     3
 72
    10
 73
     6
 74
     0
 42
0.000000001
 43
0.00000001
 40
0.0
 40
0.0
 40
0.0
 40
0.0
 40
0.3245097159491656
 40
0.654357475934672
 40
1.0
 40
1.0
 40
1.0
 40
1.0
 10
7.000174261229517
 20
7.323405786849404
 30
0.0
 10
7.000174261229517
 20
7.333041602171821
 30
0.0
 10
7.000174261229517
 20
7.352471737798135
 30
0.0
 10
7.000174261229517
 20
7.380009583735048
 30
0.0
 10
7.000174261229517
 20
7.396992538374914
 30
0.0
 10
7.000174261229517
 20
7.40568256907766
 30
0.0
  0
SPLINE
  5
D1
330
1F
100
AcDbEntity
  8
0
  6
Continuous
 62
     7
370
    15
100
AcDbSpline
210
0.0
220
0.0
230
1.0
 70
    24
 71
     3
 72
    10
 73
     6
 74
     0
 42
0.000000001
 43
0.00000001
 40
0.0
 40
0.0
 40
0.0
 40
0.0
 40
0.3217537282746048
 40
0.6529472609269659
 40
1.0
 40
1.0
 40
1.0
 40
1.0
 10
7.031424261229517
 20
7.323763412431983
 30
0.0
 10
7.031424261229517
 20
7.333277892548744
 30
0.0
 10
7.031424261229517
 20
7.352585994321789
 30
0.0
 10
7.031424261229517
 20
7.380008953433183
 30
0.0
 10
7.031424261229517
 20
7.396992325024479
 30
0.0
 10
7.031424261229517
 20
7.405682569077661
 30
0.0
  0
LINE
  5
D2
330
1F
100
AcDbEntity
  8
0
  6
Continuous
 62
     7
370
    15
100
AcDbLine
 10
7.0001742612
 20
7.4190730933
 30
0.0
 11
7.0314242612
 21
7.4190730933
 31
0.0
  0
LINE
  5
D3
330
1F
100
AcDbEntity
  8
0
  6
Continuous
 62
     7
370
    15
100
AcDbLine
 10
7.0001742612
 20
7.4056825691
 30
0.0
 11
7.0001742612
 21
7.4190730933
 31
0.0
  0
LINE
  5
D4
330
1F
100
AcDbEntity
  8
0
  6
Continuous
 62
     7
370
    15
100
AcDbLine
 10
7.0314242612
 20
7.4190730933
 30
0.0
 11
7.0314242612
 21
7.4056825691
 31
0.0
  0
LINE
  5
D5
330
1F
100
AcDbEntity
  8
0
  6
Continuous
 62
     7
370
    15
100
AcDbLine
 10
7.0001742612
 20
7.4190730933
 30
0.0
 11
7.0001742612
 21
7.4468859052
 31
0.0
  0
LINE
  5
D6
330
1F
100
AcDbEntity
  8
0
  6
Continuous
 62
     7
370
    15
100
AcDbLine
 10
7.0314242612
 20
7.4190730933
 30
0.0
 11
7.0314242612
 21
7.4468859052
 31
0.0
  0
CIRCLE
  5
D7
330
1F
100
AcDbEntity
  8
0
  6
Continuous
 62
     7
370
    15
100
AcDbCircle
 10
1.6966170922
 20
3.8243978934
 30
0.0
 40
0.0596874999999999
  0
ARC
  5
D8
330
1F
100
AcDbEntity
  8
0
  6
Continuous
 62
     7
370
    15
100
AcDbCircle
 10
1.6966170922
 20
3.8243978934
 30
0.0
 40
0.8125
100
AcDbArc
 50
165.0347118989
 51
180.0
  0
ARC
  5
D9
330
1F
100
AcDbEntity
  8
0
  6
Continuous
 62
     7
370
    15
100
AcDbCircle
 10
1.6966170922
 20
3.8243978934
 30
0.0
 40
0.8125000000000004
100
AcDbArc
 50
105.0347118989
 51
122.9312855712
  0
ARC
  5
DA
330
1F
100
AcDbEntity
  8
0
  6
Continuous
 62
     7
370
    15
100
AcDbCircle
 10
1.6966170922
 20
3.8243978934
 30
0.0
 40
0.8124999999999996
100
AcDbArc
 50
45.0347118989
 51
62.9312855712
  0
ARC
  5
DB
330
1F
100
AcDbEntity
  8
0
  6
Continuous
 62
     7
370
    15
100
AcDbCircle
 10
1.6966170922
 20
3.8243978934
 30
0.0
 40
0.8125000000000001
100
AcDbArc
 50
345.0347118989
 51
2.9312855712
  0
ARC
  5
DC
330
1F
100
AcDbEntity
  8
0
  6
Continuous
 62
     7
370
    15
100
AcDbCircle
 10
1.6966170922
 20
3.8243978934
 30
0.0
 40
0.8125000000000002
100
AcDbArc
 50
285.0347118989
 51
302.9312855712
  0
ARC
  5
DD
330
1F
100
AcDbEntity
  8
0
  6
Continuous
 62
     7
370
    15
100
AcDbCircle
 10
1.6966170922
 20
3.8243978934
 30
0.0
 40
0.8125000000000002
100
AcDbArc
 50
225.0347118989
 51
242.9312855712
  0
LWPOLYLINE
  5
DE
330
1F
100
AcDbEntity
  8
0
  6
Continuous
 62
     7
370
    15
100
AcDbPolyline
 90
        3
 70
   128
 43
0.0
 10
0.8851801812
 20
3.7828480495
 10
0.8849840501
 20
3.7868738332
 10
0.8841170922
 20
3.8243978934
  0
CIRCLE
  5
DF
330
1F
100
AcDbEntity
  8
0
  6
Continuous
 62
     7
370
    15
100
AcDbCircle
 10
1.6966170922
 20
4.3868978934
 30
0.0
 40
0.1562500000000006
  0
CIRCLE
  5
E0
330
1F
100
AcDbEntity
  8
0
  6
Continuous
 62
     7
370
    15
100
AcDbCircle
 10
1.6966170922
 20
4.3868978934
 30
0.0
 40
0.1718750000000004
  0
CIRCLE
  5
E1
330
1F
100
AcDbEntity
  8
0
  6
Continuous
 62
     7
370
    15
100
AcDbCircle
 10
1.6966170922
 20
3.2618978934
 30
0.0
 40
0.1718750000000002
  0
CIRCLE
  5
E2
330
1F
100
AcDbEntity
  8
0
  6
Continuous
 62
     7
370
    15
100
AcDbCircle
 10
1.6966170922
 20
3.2618978934
 30
0.0
 40
0.1562500000000008
  0
CIRCLE
  5
E3
330
1F
100
AcDbEntity
  8
0
  6
Continuous
 62
     7
370
    15
100
AcDbCircle
 10
2.1837563818
 20
3.5431478934
 30
0.0
 40
0.1562499999999999
  0
CIRCLE
  5
E4
330
1F
100
AcDbEntity
  8
0
  6
Continuous
 62
     7
370
    15
100
AcDbCircle
 10
2.1837563818
 20
3.5431478934
 30
0.0
 40
0.171875
  0
CIRCLE
  5
E5
330
1F
100
AcDbEntity
  8
0
  6
Continuous
 62
     7
370
    15
100
AcDbCircle
 10
2.1837563818
 20
4.1056478934
 30
0.0
 40
0.1562500000000004
  0
CIRCLE
  5
E6
330
1F
100
AcDbEntity
  8
0
  6
Continuous
 62
     7
370
    15
100
AcDbCircle
 10
2.1837563818
 20
4.1056478934
 30
0.0
 40
0.1718750000000004
  0
CIRCLE
  5
E7
330
1F
100
AcDbEntity
  8
0
  6
Continuous
 62
     7
370
    15
100
AcDbCircle
 10
1.2094778025
 20
4.1056478934
 30
0.0
 40
0.1562500000000007
  0
CIRCLE
  5
E8
330
1F
100
AcDbEntity
  8
0
  6
Continuous
 62
     7
370
    15
100
AcDbCircle
 10
1.2094778025
 20
4.1056478934
 30
0.0
 40
0.1718750000000007
  0
CIRCLE
  5
E9
330
1F
100
AcDbEntity
  8
0
  6
Continuous
 62
     7
370
    15
100
AcDbCircle
 10
1.2094778025
 20
3.5431478934
 30
0.0
 40
0.15625
  0
CIRCLE
  5
EA
330
1F
100
AcDbEntity
  8
0
  6
Continuous
 62
     7
370
    15
100
AcDbCircle
 10
1.2094778025
 20
3.5431478934
 30
0.0
 40
0.1718750000000002
  0
SPLINE
  5
EB
330
1F
100
AcDbEntity
  8
0
  6
Continuous
 62
     7
370
    15
100
AcDbSpline
210
0.0
220
0.0
230
1.0
 70
     8
 71
     3
 72
     9
 73
     5
 74
     0
 42
0.000000001
 43
0.00000001
 40
0.0
 40
0.0
 40
0.0
 40
0.0
 40
0.5736392582027331
 40
1.0
 40
1.0
 40
1.0
 40
1.0
 10
2.068547227608648
 20
4.470196001933903
 30
0.0
 10
2.073266803470698
 20
4.476846966470567
 30
0.0
 10
2.081494231762195
 20
4.488441299392449
 30
0.0
 10
2.084817132179642
 20
4.502213147103493
 30
0.0
 10
2.086233886466543
 20
4.508084922309492
 30
0.0
  0
ARC
  5
EC
330
1F
100
AcDbEntity
  8
0
  6
Continuous
 62
     7
370
    15
100
AcDbCircle
 10
2.0919847276
 20
4.4296010611
 30
0.0
 40
0.046875
100
AcDbArc
 50
120.0
 51
300.0
  0
SPLINE
  5
ED
330
1F
100
AcDbEntity
  8
0
  6
Continuous
 62
     7
370
    15
100
AcDbSpline
210
0.0
220
0.0
230
1.0
 70
     8
 71
     3
 72
    11
 73
     7
 74
     0
 42
0.000000001
 43
0.00000001
 40
0.0
 40
0.0
 40
0.0
 40
0.0
 40
0.2709616674080945
 40
0.5444933586610519
 40
0.7669211993742516
 40
1.0
 40
1.0
 40
1.0
 40
1.0
 10
2.115422227608648
 20
4.389006120329112
 30
0.0
 10
2.126766477608663
 20
4.394130473986453
 30
0.0
 10
2.149562575828329
 20
4.404427784895937
 30
0.0
 10
2.184320365164746
 20
4.411162859879224
 30
0.0
 10
2.217752913812854
 20
4.41306262978127
 30
0.0
 10
2.238544943109391
 20
4.410981884694724
 30
0.0
 10
2.249184044301784
 20
4.409917185467168
 30
0.0
  0
ARC
  5
EE
330
1F
100
AcDbEntity
  8
0
  6
Continuous
 62
     7
370
    15
100
AcDbCircle
 10
2.1179325368
 20
3.1739224549
 30
0.0
 40
0.0375000000000003
100
AcDbArc
 50
230.1415216133
 51
302.9312855712
  0
ARC
  5
EF
330
1F
100
AcDbEntity
  8
0
  6
Continuous
 62
     7
370
    15
100
AcDbCircle
 10
1.8976553403
 20
3.075927037
 30
0.0
 40
0.0375000000000007
100
AcDbArc
 50
285.0347118989
 51
322.5052883249
  0
ARC
  5
F0
330
1F
100
AcDbEntity
  8
0
  6
Continuous
 62
     7
370
    15
100
AcDbCircle
 10
2.4453309918
 20
3.6242666952
 30
0.0
 40
0.0375000000000005
100
AcDbArc
 50
345.0347118989
 51
22.5052883249
  0
ARC
  5
F1
330
1F
100
AcDbEntity
  8
0
  6
Continuous
 62
     7
370
    15
100
AcDbCircle
 10
2.4706030688
 20
3.8640300522
 30
0.0
 40
0.0375
100
AcDbArc
 50
290.1415216133
 51
2.9312855712
  0
ARC
  5
F2
330
1F
100
AcDbEntity
  8
0
  6
Continuous
 62
     7
370
    15
100
AcDbCircle
 10
2.0492876241
 20
4.5145054907
 30
0.0
 40
0.0375
100
AcDbArc
 50
350.1415216133
 51
62.9312855712
  0
ARC
  5
F3
330
1F
100
AcDbEntity
  8
0
  6
Continuous
 62
     7
370
    15
100
AcDbCircle
 10
2.2442927437
 20
4.3727375515
 30
0.0
 40
0.0375000000000001
100
AcDbArc
 50
45.0347118989
 51
82.5052883249
  0
ARC
  5
F4
330
1F
100
AcDbEntity
  8
0
  6
Continuous
 62
     7
370
    15
100
AcDbCircle
 10
1.4955788441
 20
4.5728687497
 30
0.0
 40
0.0374999999999999
100
AcDbArc
 50
105.0347118989
 51
142.5052883249
  0
ARC
  5
F5
330
1F
100
AcDbEntity
  8
0
  6
Continuous
 62
     7
370
    15
100
AcDbCircle
 10
1.2753016475
 20
4.4748733319
 30
0.0
 40
0.0375000000000005
100
AcDbArc
 50
50.1415216133
 51
122.9312855712
  0
ARC
  5
F6
330
1F
100
AcDbEntity
  8
0
  6
Continuous
 62
     7
370
    15
100
AcDbCircle
 10
0.9479031925
 20
4.0245290916
 30
0.0
 40
0.0374999999999999
100
AcDbArc
 50
165.0347118989
 51
202.5052883249
  0
ARC
  5
F7
330
1F
100
AcDbEntity
  8
0
  6
Continuous
 62
     7
370
    15
100
AcDbCircle
 10
0.9226311156
 20
3.7847657346
 30
0.0
 40
0.0375000000000004
100
AcDbArc
 50
110.1415216133
 51
182.9312855712
  0
ARC
  5
F8
330
1F
100
AcDbEntity
  8
0
  6
Continuous
 62
     7
370
    15
100
AcDbCircle
 10
1.1489414406
 20
3.2760582352
 30
0.0
 40
0.0375000000000001
100
AcDbArc
 50
225.0347118989
 51
262.5052883249
  0
ARC
  5
F9
330
1F
100
AcDbEntity
  8
0
  6
Continuous
 62
     7
370
    15
100
AcDbCircle
 10
1.3439465602
 20
3.1342902961
 30
0.0
 40
0.0375000000000007
100
AcDbArc
 50
170.1415216133
 51
242.9312855712
  0
SPLINE
  5
FA
330
1F
100
AcDbEntity
  8
0
  6
Continuous
 62
     7
370
    15
100
AcDbSpline
210
0.0
220
0.0
230
1.0
 70
     8
 71
     3
 72
     9
 73
     5
 74
     0
 42
0.000000001
 43
0.00000001
 40
0.0
 40
0.0
 40
0.0
 40
0.0
 40
0.573639258202732
 40
1.0
 40
1.0
 40
1.0
 40
1.0
 10
2.441859727608702
 20
3.825196001933898
 30
0.0
 10
2.449979419788148
 20
3.824434211610607
 30
0.0
 10
2.46413412078418
 20
3.823106216163297
 30
0.0
 10
2.477722340967718
 20
3.827114423843064
 30
0.0
 10
2.483515824604876
 20
3.828823366242687
 30
0.0
  0
SPLINE
  5
FB
330
1F
100
AcDbEntity
  8
0
  6
Continuous
 62
     7
370
    15
100
AcDbSpline
210
0.0
220
0.0
230
1.0
 70
     8
 71
     3
 72
    11
 73
     7
 74
     0
 42
0.000000001
 43
0.00000001
 40
0.0
 40
0.0
 40
0.0
 40
0.0
 40
0.2709616674080945
 40
0.5444933586610516
 40
0.7669211993742514
 40
1.0
 40
1.0
 40
1.0
 40
1.0
 10
2.394984727608701
 20
3.744006120329108
 30
0.0
 10
2.405094673053943
 20
3.736743888470883
 30
0.0
 10
2.425410455002055
 20
3.722150543760229
 30
0.0
 10
2.448622095702183
 20
3.695416952707147
 30
0.0
 10
2.466983619022753
 20
3.66741340121565
 30
0.0
 10
2.475577655567273
 20
3.648366603105346
 30
0.0
 10
2.479975149585017
 20
3.638620521585522
 30
0.0
  0
ARC
  5
FC
330
1F
100
AcDbEntity
  8
0
  6
Continuous
 62
     7
370
    15
100
AcDbCircle
 10
2.4184222276
 20
3.7846010611
 30
0.0
 40
0.0468749999999998
100
AcDbArc
 50
60.0
 51
240.0
  0
ARC
  5
FD
330
1F
100
AcDbEntity
  8
0
  6
Continuous
 62
     7
370
    15
100
AcDbCircle
 10
1.6966170922
 20
3.8243978934
 30
0.0
 40
0.8125000000000001
100
AcDbArc
 50
242.9312855712
 51
285.0347118989
  0
ARC
  5
FE
330
1F
100
AcDbEntity
  8
0
  6
Continuous
 62
     7
370
    15
100
AcDbCircle
 10
1.6966170922
 20
3.8243978934
 30
0.0
 40
0.8125000000000001
100
AcDbArc
 50
182.9312855712
 51
225.0347118989
  0
SPLINE
  5
FF
330
1F
100
AcDbEntity
  8
0
  6
Continuous
 62
     7
370
    15
100
AcDbSpline
210
0.0
220
0.0
230
1.0
 70
     8
 71
     3
 72
     9
 73
     5
 74
     0
 42
0.000000001
 43
0.00000001
 40
0.0
 40
0.0
 40
0.0
 40
0.0
 40
0.5736392582027353
 40
1.0
 40
1.0
 40
1.0
 40
1.0
 10
1.323304592167649
 20
4.469397893383577
 30
0.0
 10
1.319904475850253
 20
4.476810648243532
 30
0.0
 10
1.313977203145717
 20
4.489732976612724
 30
0.0
 10
1.303711883379627
 20
4.499496616644
 30
0.0
 10
1.29933515402937
 20
4.503659449450377
 30
0.0
  0
SPLINE
  5
100
330
1F
100
AcDbEntity
  8
0
  6
Continuous
 62
     7
370
    15
100
AcDbSpline
210
0.0
220
0.0
230
1.0
 70
     8
 71
     3
 72
    11
 73
     7
 74
     0
 42
0.000000001
 43
0.00000001
 40
0.0
 40
0.0
 40
0.0
 40
0.0
 40
0.270961667408094
 40
0.5444933586610521
 40
0.7669211993742524
 40
1.0
 40
1.0
 40
1.0
 40
1.0
 10
1.41705459216765
 20
4.469397893383577
 30
0.0
 10
1.418288896722423
 20
4.481784478899143
 30
0.0
 10
1.420769212993977
 20
4.506675134519281
 30
0.0
 10
1.432315361630266
 20
4.54014380055565
 30
0.0
 10
1.447386386957802
 20
4.570047121949192
 30
0.0
 10
1.459584379709819
 20
4.587013174972951
 30
0.0
 10
1.465825986884469
 20
4.595694557265219
 30
0.0
  0
ARC
  5
101
330
1F
100
AcDbEntity
  8
0
  6
Continuous
 62
     7
370
    15
100
AcDbCircle
 10
1.3701795922
 20
4.4693978934
 30
0.0
 40
0.046875
100
AcDbArc
 50
180.0
 51
0.0
  0
SPLINE
  5
102
330
1F
100
AcDbEntity
  8
0
  6
Continuous
 62
     7
370
    15
100
AcDbSpline
210
0.0
220
0.0
230
1.0
 70
     8
 71
     3
 72
     9
 73
     5
 74
     0
 42
0.000000001
 43
0.00000001
 40
0.0
 40
0.0
 40
0.0
 40
0.0
 40
0.5736392582027355
 40
1.0
 40
1.0
 40
1.0
 40
1.0
 10
0.9513744567267164
 20
3.82359978483325
 30
0.0
 10
0.943254764547271
 20
3.824361575156541
 30
0.0
 10
0.9291000635512384
 20
3.825689570603851
 30
0.0
 10
0.9155118433677014
 20
3.821681362924084
 30
0.0
 10
0.9097183597305436
 20
3.819972420524461
 30
0.0
  0
SPLINE
  5
103
330
1F
100
AcDbEntity
  8
0
  6
Continuous
 62
     7
370
    15
100
AcDbSpline
210
0.0
220
0.0
230
1.0
 70
     8
 71
     3
 72
    11
 73
     7
 74
     0
 42
0.000000001
 43
0.00000001
 40
0.0
 40
0.0
 40
0.0
 40
0.0
 40
0.270961667408094
 40
0.5444933586610516
 40
0.7669211993742517
 40
1.0
 40
1.0
 40
1.0
 40
1.0
 10
0.9982494567267169
 20
3.904789666438041
 30
0.0
 10
0.988139511281475
 20
3.912051898296265
 30
0.0
 10
0.9678237293333625
 20
3.926645243006919
 30
0.0
 10
0.9446120886332346
 20
3.953378834060001
 30
0.0
 10
0.9262505653126639
 20
3.981382385551497
 30
0.0
 10
0.9176565287681444
 20
4.000429183661802
 30
0.0
 10
0.9132590347504003
 20
4.010175265181625
 30
0.0
  0
ARC
  5
104
330
1F
100
AcDbEntity
  8
0
  6
Continuous
 62
     7
370
    15
100
AcDbCircle
 10
0.9748119567
 20
3.8641947256
 30
0.0
 40
0.0468750000000006
100
AcDbArc
 50
240.0
 51
60.0
  0
SPLINE
  5
105
330
1F
100
AcDbEntity
  8
0
  6
Continuous
 62
     7
370
    15
100
AcDbSpline
210
0.0
220
0.0
230
1.0
 70
     8
 71
     3
 72
     9
 73
     5
 74
     0
 42
0.000000001
 43
0.00000001
 40
0.0
 40
0.0
 40
0.0
 40
0.0
 40
0.5736392582027335
 40
1.0
 40
1.0
 40
1.0
 40
1.0
 10
1.324686956726775
 20
3.178599784833247
 30
0.0
 10
1.319967380864725
 20
3.171948820296584
 30
0.0
 10
1.311739952573229
 20
3.160354487374701
 30
0.0
 10
1.308417052155782
 20
3.146582639663658
 30
0.0
 10
1.307000297868881
 20
3.140710864457659
 30
0.0
  0
SPLINE
  5
106
330
1F
100
AcDbEntity
  8
0
  6
Continuous
 62
     7
370
    15
100
AcDbSpline
210
0.0
220
0.0
230
1.0
 70
     8
 71
     3
 72
    11
 73
     7
 74
     0
 42
0.000000001
 43
0.00000001
 40
0.0
 40
0.0
 40
0.0
 40
0.0
 40
0.2709616674080946
 40
0.5444933586610511
 40
0.7669211993742513
 40
0.9999999999999999
 40
0.9999999999999999
 40
0.9999999999999999
 40
0.9999999999999999
 10
1.277811956726775
 20
3.259789666438039
 30
0.0
 10
1.266467706726759
 20
3.254665312780697
 30
0.0
 10
1.243671608507094
 20
3.244368001871213
 30
0.0
 10
1.208913819170676
 20
3.237632926887926
 30
0.0
 10
1.175481270522569
 20
3.235733156985879
 30
0.0
 10
1.154689241226032
 20
3.237813902072425
 30
0.0
 10
1.144050140033638
 20
3.238878601299982
 30
0.0
  0
ARC
  5
107
330
1F
100
AcDbEntity
  8
0
  6
Continuous
 62
     7
370
    15
100
AcDbCircle
 10
1.3012494567
 20
3.2191947256
 30
0.0
 40
0.0468750000000004
100
AcDbArc
 50
300.0
 51
120.0
  0
SPLINE
  5
108
330
1F
100
AcDbEntity
  8
0
  6
Continuous
 62
     7
370
    15
100
AcDbSpline
210
0.0
220
0.0
230
1.0
 70
     8
 71
     3
 72
     9
 73
     5
 74
     0
 42
0.000000001
 43
0.00000001
 40
0.0
 40
0.0
 40
0.0
 40
0.0
 40
0.5736392582027311
 40
1.0
 40
1.0
 40
1.0
 40
1.0
 10
2.069929592167769
 20
3.179397893383577
 30
0.0
 10
2.073329708485165
 20
3.171985138523622
 30
0.0
 10
2.079256981189701
 20
3.15906281015443
 30
0.0
 10
2.089522300955792
 20
3.149299170123153
 30
0.0
 10
2.093899030306049
 20
3.145136337316776
 30
0.0
  0
SPLINE
  5
109
330
1F
100
AcDbEntity
  8
0
  6
Continuous
 62
     7
370
    15
100
AcDbSpline
210
0.0
220
0.0
230
1.0
 70
     8
 71
     3
 72
    11
 73
     7
 74
     0
 42
0.000000001
 43
0.00000001
 40
0.0
 40
0.0
 40
0.0
 40
0.0
 40
0.2709616674080934
 40
0.5444933586610518
 40
0.7669211993742524
 40
1.0
 40
1.0
 40
1.0
 40
1.0
 10
1.976179592167769
 20
3.179397893383577
 30
0.0
 10
1.974945287612995
 20
3.167011307868011
 30
0.0
 10
1.972464971341442
 20
3.142120652247873
 30
0.0
 10
1.960918822705153
 20
3.108651986211504
 30
0.0
 10
1.945847797377617
 20
3.078748664817961
 30
0.0
 10
1.9336498046256
 20
3.061782611794202
 30
0.0
 10
1.92740819745095
 20
3.053101229501935
 30
0.0
  0
ARC
  5
10A
330
1F
100
AcDbEntity
  8
0
  6
Continuous
 62
     7
370
    15
100
AcDbCircle
 10
2.0230545922
 20
3.1793978934
 30
0.0
 40
0.046875
100
AcDbArc
 50
0.0
 51
180.0
  0
CIRCLE
  5
10B
330
1F
100
AcDbEntity
  8
0
  6
Continuous
 62
     7
370
    15
100
AcDbCircle
 10
1.6966170922
 20
3.8243978934
 30
0.0
 40
0.0624999999999998
  0
ARC
  5
10C
330
1F
100
AcDbEntity
  8
0
  6
Continuous
 62
     7
370
    15
100
AcDbCircle
 10
1.6966170922
 20
3.8243978934
 30
0.0
 40
0.8125000000000003
100
AcDbArc
 50
2.9312855712
 51
45.0347118989
  0
ARC
  5
10D
330
1F
100
AcDbEntity
  8
0
  6
Continuous
 62
     7
370
    15
100
AcDbCircle
 10
1.6966170922
 20
3.8243978934
 30
0.0
 40
0.8125000000000004
100
AcDbArc
 50
302.9312855712
 51
345.0347118989
  0
ARC
  5
10E
330
1F
100
AcDbEntity
  8
0
  6
Continuous
 62
     7
370
    15
100
AcDbCircle
 10
1.6966170922
 20
3.8243978934
 30
0.0
 40
0.8125000000000002
100
AcDbArc
 50
62.9312855712
 51
105.0347118989
  0
ARC
  5
10F
330
1F
100
AcDbEntity
  8
0
  6
Continuous
 62
     7
370
    15
100
AcDbCircle
 10
1.6966170922
 20
3.8243978934
 30
0.0
 40
0.8125000000000002
100
AcDbArc
 50
122.9312855712
 51
165.0347118989
  0
LINE
  5
110
330
1F
100
AcDbEntity
  8
0
  6
Continuous
 62
     7
370
    15
100
AcDbLine
 10
5.1317215539
 20
4.093442169
 30
0.0
 11
5.1206730105
 21
4.0836982696
 31
0.0
  0
LINE
  5
111
330
1F
100
AcDbEntity
  8
0
  6
Continuous
 62
     7
370
    15
100
AcDbLine
 10
6.1955094806
 20
2.8649482696
 30
0.0
 11
6.2065580241
 21
2.874692169
 31
0.0
  0
LINE
  5
112
330
1F
100
AcDbEntity
  8
0
  6
Continuous
 62
     7
370
    15
100
AcDbLine
 10
6.0857852481
 20
4.6110106782
 30
0.0
 11
5.6755966941
 21
4.2492583766
 31
0.0
  0
LINE
  5
113
330
1F
100
AcDbEntity
  8
0
  6
Continuous
 62
     7
370
    15
100
AcDbLine
 10
5.5512651752
 20
4.1396082836
 30
0.0
 11
5.03617362
 21
3.6853402311
 31
0.0
  0
LINE
  5
114
330
1F
100
AcDbEntity
  8
0
  6
Continuous
 62
     7
370
    15
100
AcDbLine
 10
5.2635428733
 20
3.4275277311
 30
0.0
 11
5.7786344285
 21
3.8817957836
 31
0.0
  0
LINE
  5
115
330
1F
100
AcDbEntity
  8
0
  6
Continuous
 62
     7
370
    15
100
AcDbLine
 10
6.0359733824
 20
4.1087474085
 30
0.0
 11
6.3131545014
 21
4.3531981782
 31
0.0
  0
LINE
  5
116
330
1F
100
AcDbEntity
  8
0
  6
Continuous
 62
     7
370
    15
100
AcDbLine
 10
5.5512651752
 20
3.0789481118
 30
0.0
 11
5.03617362
 21
2.6246800593
 31
0.0
  0
LINE
  5
117
330
1F
100
AcDbEntity
  8
0
  6
Continuous
 62
     7
370
    15
100
AcDbLine
 10
5.2635428733
 20
2.3668675593
 30
0.0
 11
5.5105771538
 21
2.5847313165
 31
0.0
  0
LINE
  5
118
330
1F
100
AcDbEntity
  8
0
  6
Continuous
 62
     7
370
    15
100
AcDbLine
 10
5.0955880948
 20
3.4015230706
 30
0.0
 11
4.5804965397
 21
2.9472550181
 31
0.0
  0
LINE
  5
119
330
1F
100
AcDbEntity
  8
0
  6
Continuous
 62
     7
370
    15
100
AcDbLine
 10
4.807865793
 20
2.6894425181
 30
0.0
 11
5.3229573481
 21
3.1437105706
 31
0.0
  0
LINE
  5
11A
330
1F
100
AcDbEntity
  8
0
  6
Continuous
 62
     7
370
    15
100
AcDbLine
 10
5.6301081677
 20
4.403255551
 30
0.0
 11
5.4510780961
 21
4.2453658688
 31
0.0
  0
LINE
  5
11B
330
1F
100
AcDbEntity
  8
0
  6
Continuous
 62
     7
370
    15
100
AcDbLine
 10
5.0955880948
 20
3.9318531565
 30
0.0
 11
4.5804965397
 21
3.477585104
 31
0.0
  0
LINE
  5
11C
330
1F
100
AcDbEntity
  8
0
  6
Continuous
 62
     7
370
    15
100
AcDbLine
 10
4.807865793
 20
3.219772604
 30
0.0
 11
5.0549000734
 21
3.4376363611
 31
0.0
  0
LINE
  5
11D
330
1F
100
AcDbEntity
  8
0
  6
Continuous
 62
     7
370
    15
100
AcDbLine
 10
6.5414623285
 20
4.2884357194
 30
0.0
 11
6.1888879062
 21
3.977494306
 31
0.0
  0
LINE
  5
11E
330
1F
100
AcDbEntity
  8
0
  6
Continuous
 62
     7
370
    15
100
AcDbLine
 10
6.0069422556
 20
3.8170333248
 30
0.0
 11
5.4918507004
 21
3.3627652723
 31
0.0
  0
LINE
  5
11F
330
1F
100
AcDbEntity
  8
0
  6
Continuous
 62
     7
370
    15
100
AcDbLine
 10
5.7192199537
 20
3.1049527723
 30
0.0
 11
6.2343115089
 21
3.5592208248
 31
0.0
  0
LINE
  5
120
330
1F
100
AcDbEntity
  8
0
  6
Continuous
 62
     7
370
    15
100
AcDbLine
 10
6.3738187455
 20
3.6822546429
 30
0.0
 11
6.7688315818
 21
4.0306232194
 31
0.0
  0
LINE
  5
121
330
1F
100
AcDbEntity
  8
0
  6
Continuous
 62
     7
370
    15
100
AcDbLine
 10
6.5414623285
 20
3.7581056335
 30
0.0
 11
6.3928024126
 21
3.626999911
 31
0.0
  0
LINE
  5
122
330
1F
100
AcDbEntity
  8
0
  6
Continuous
 62
     7
370
    15
100
AcDbLine
 10
6.0069422556
 20
3.2867032389
 30
0.0
 11
5.4918507004
 21
2.8324351864
 31
0.0
  0
LINE
  5
123
330
1F
100
AcDbEntity
  8
0
  6
Continuous
 62
     7
370
    15
100
AcDbLine
 10
5.7192199537
 20
2.5746226864
 30
0.0
 11
6.2343115089
 21
3.0288907389
 31
0.0
  0
LINE
  5
124
330
1F
100
AcDbEntity
  8
0
  6
Continuous
 62
     7
370
    15
100
AcDbLine
 10
6.3972097148
 20
3.1725534529
 30
0.0
 11
6.7688315818
 21
3.5002931335
 31
0.0
  0
LINE
  5
125
330
1F
100
AcDbEntity
  8
0
  6
Continuous
 62
     7
370
    15
100
AcDbLine
 10
6.5774500832
 20
4.5513806454
 30
0.0
 11
6.5664015397
 21
4.541636746
 31
0.0
  0
LINE
  5
126
330
1F
100
AcDbEntity
  8
0
  6
Continuous
 62
     7
370
    15
100
AcDbLine
 10
6.8848480932
 20
3.9673003518
 30
0.0
 11
6.8958966367
 21
3.9770442512
 31
0.0
  0
LINE
  5
127
330
1F
100
AcDbEntity
  8
0
  6
Continuous
 62
     7
370
    15
100
AcDbLine
 10
6.7368881098
 20
3.3423993423
 30
0.0
 11
6.7479366533
 21
3.3521432417
 31
0.0
  0
LINE
  5
128
330
1F
100
AcDbEntity
  8
0
  6
Continuous
 62
     7
370
    15
100
AcDbLine
 10
5.8558214244
 20
4.6818455449
 30
0.0
 11
5.844772881
 21
4.6721016455
 31
0.0
  0
LINE
  5
129
330
1F
100
AcDbEntity
  8
0
  6
Continuous
 62
     7
370
    15
100
AcDbLine
 10
5.6731001831
 20
4.5708932417
 30
0.0
 11
5.6620516397
 21
4.5611493423
 31
0.0
  0
LINE
  5
12A
330
1F
100
AcDbEntity
  8
0
  6
Continuous
 62
     7
370
    15
100
AcDbLine
 10
6.5541668686
 20
3.2314470391
 30
0.0
 11
6.565215412
 21
3.2411909385
 31
0.0
  0
LWPOLYLINE
  5
12B
330
1F
100
AcDbEntity
  8
0
  6
Continuous
 62
     7
370
    15
100
AcDbPolyline
 90
       52
 70
   128
 43
0.0
 10
6.4291639457
 20
3.3883131258
 10
6.4283529808
 20
3.4237933209
 10
6.4259218166
 20
3.4594021435
 10
6.4218756415
 20
3.4950636025
 10
6.4162230901
 20
3.5307015946
 10
6.4089762254
 20
3.5662400664
 10
6.4001505123
 20
3.6016031772
 10
6.3897647856
 20
3.6367154602
 10
6.3778412088
 20
3.671501984
 10
6.3644052275
 20
3.7058885125
 10
6.3494855146
 20
3.739801663
 10
6.3331139097
 20
3.7731690633
 10
6.3153253506
 20
3.8059195055
 10
6.2961577989
 20
3.8379830987
 10
6.2756521592
 20
3.8692914174
 10
6.2538521915
 20
3.8997776482
 10
6.2308044181
 20
3.9293767318
 10
6.2065580241
 20
3.9580255024
 10
6.1811647524
 20
3.985662822
 10
6.1546787937
 20
4.0122297113
 10
6.1271566703
 20
4.037669475
 10
6.0986571158
 20
4.0619278235
 10
6.0692409496
 20
4.0849529883
 10
6.0389709475
 20
4.1066958324
 10
6.007911707
 20
4.1271099556
 10
5.9761295101
 20
4.1461517931
 10
5.9436921817
 20
4.1637807087
 10
5.9106689447
 20
4.1799590812
 10
5.8771302722
 20
4.1946523854
 10
5.8431477376
 20
4.2078292649
 10
5.8087938613
 20
4.2194615997
 10
5.7741419562
 20
4.2295245656
 10
5.7392659711
 20
4.2379966879
 10
5.7042403332
 20
4.2448598866
 10
5.669139789
 20
4.2500995153
 10
5.6340392448
 20
4.2537043924
 10
5.5990136069
 20
4.2556668249
 10
5.5641376218
 20
4.2559826248
 10
5.5294857167
 20
4.2546511182
 10
5.4951318403
 20
4.2516751466
 10
5.4611493057
 20
4.247061061
 10
5.4276106333
 20
4.2408187079
 10
5.3945873963
 20
4.2329614089
 10
5.3621500679
 20
4.2235059319
 10
5.330367871
 20
4.2124724552
 10
5.2993086305
 20
4.199884525
 10
5.2690386283
 20
4.1857690045
 10
5.2396224622
 20
4.1701560169
 10
5.2111229077
 20
4.1530788811
 10
5.1836007843
 20
4.1345740406
 10
5.1571148255
 20
4.1146809856
 10
5.1317215539
 20
4.093442169
  0
LWPOLYLINE
  5
12C
330
1F
100
AcDbEntity
  8
0
  6
Continuous
 62
     7
370
    15
100
AcDbPolyline
 90
       18
 70
   128
 43
0.0
 10
6.2065580241
 20
2.874692169
 10
6.2308044181
 20
2.8972314226
 10
6.2538521915
 20
2.9210230132
 10
6.2756521592
 20
2.9460161685
 10
6.2961577989
 20
2.9721575516
 10
6.3153253506
 20
2.9993913757
 10
6.3331139097
 20
3.0276595224
 10
6.3494855146
 20
3.056901666
 10
6.3644052275
 20
3.0870554023
 10
6.3778412088
 20
3.1180563817
 10
6.3897647856
 20
3.1498384466
 10
6.4001505123
 20
3.1823337724
 10
6.4089762254
 20
3.2154730125
 10
6.4162230901
 20
3.2491854461
 10
6.4218756415
 20
3.2833991291
 10
6.4259218166
 20
3.3180410478
 10
6.4283529808
 20
3.3530372746
 10
6.4291639457
 20
3.3883131258
  0
LWPOLYLINE
  5
12D
330
1F
100
AcDbEntity
  8
0
  6
Continuous
 62
     7
370
    15
100
AcDbPolyline
 90
       63
 70
   128
 43
0.0
 10
6.4181154022
 20
3.3785692263
 10
6.4173044373
 20
3.4140494215
 10
6.4148732732
 20
3.4496582441
 10
6.4108270981
 20
3.4853197031
 10
6.4051745467
 20
3.5209576952
 10
6.3979276819
 20
3.556496167
 10
6.3891019689
 20
3.5918592777
 10
6.3787162422
 20
3.6269715607
 10
6.3667926653
 20
3.6617580845
 10
6.353356684
 20
3.696144613
 10
6.3384369712
 20
3.7300577636
 10
6.3220653663
 20
3.7634251638
 10
6.3042768071
 20
3.7961756061
 10
6.2851092555
 20
3.8282391992
 10
6.2646036157
 20
3.859547518
 10
6.2428036481
 20
3.8900337487
 10
6.2197558747
 20
3.9196328324
 10
6.1955094806
 20
3.948281603
 10
6.170116209
 20
3.9759189226
 10
6.1436302503
 20
4.0024858118
 10
6.1161081269
 20
4.0279255756
 10
6.0876085723
 20
4.0521839241
 10
6.0581924062
 20
4.0752090888
 10
6.027922404
 20
4.096951933
 10
5.9968631635
 20
4.1173660562
 10
5.9650809666
 20
4.1364078937
 10
5.9326436382
 20
4.1540368092
 10
5.8996204012
 20
4.1702151818
 10
5.8660817288
 20
4.184908486
 10
5.8320991942
 20
4.1980853655
 10
5.7977453179
 20
4.2097177002
 10
5.7630934127
 20
4.2197806662
 10
5.7282174276
 20
4.2282527885
 10
5.6931917897
 20
4.2351159872
 10
5.6580912455
 20
4.2403556159
 10
5.6229907013
 20
4.243960493
 10
5.5879650634
 20
4.2459229254
 10
5.5530890784
 20
4.2462387253
 10
5.5184371732
 20
4.2449072188
 10
5.4840832969
 20
4.2419312472
 10
5.4501007623
 20
4.2373171615
 10
5.4165620899
 20
4.2310748085
 10
5.3835388528
 20
4.2232175095
 10
5.3511015244
 20
4.2137620324
 10
5.3193193276
 20
4.2027285558
 10
5.2882600871
 20
4.1901406256
 10
5.2579900849
 20
4.176025105
 10
5.2285739187
 20
4.1604121174
 10
5.2000743642
 20
4.1433349816
 10
5.1725522408
 20
4.1248301411
 10
5.1460662821
 20
4.1049370862
 10
5.1206730105
 20
4.0836982696
 10
5.0964266164
 20
4.061159016
 10
5.073378843
 20
4.0373674254
 10
5.0515788753
 20
4.0123742701
 10
5.0310732356
 20
3.986232887
 10
5.0119056839
 20
3.9589990629
 10
4.9941171248
 20
3.9307309162
 10
4.9777455199
 20
3.9014887726
 10
4.9628258071
 20
3.8713350363
 10
4.9493898257
 20
3.8403340569
 10
4.9374662489
 20
3.808551992
 10
4.9300213197
 20
3.7858369857
  0
ARC
  5
12E
330
1F
100
AcDbEntity
  8
0
  6
Continuous
 62
     7
370
    15
100
AcDbCircle
 10
5.762890701
 20
3.585133788
 30
0.0
 40
0.866449686215701
100
AcDbArc
 50
197.0288986126
 51
200.8930961844
  0
ARC
  5
12F
330
1F
100
AcDbEntity
  8
0
  6
Continuous
 62
     7
370
    15
100
AcDbCircle
 10
5.8050636857
 20
3.6029472747
 30
0.0
 40
0.9118464371804312
100
AcDbArc
 50
223.0148968178
 51
235.703284797
  0
LWPOLYLINE
  5
130
330
1F
100
AcDbEntity
  8
0
  6
Continuous
 62
     7
370
    15
100
AcDbPolyline
 90
       29
 70
   128
 43
0.0
 10
5.8761529384
 20
2.7130245698
 10
5.8996204012
 20
2.7175717307
 10
5.9326436382
 20
2.7254290297
 10
5.9650809666
 20
2.7348845067
 10
5.9968631635
 20
2.7459179834
 10
6.027922404
 20
2.7585059136
 10
6.0581924062
 20
2.7726214341
 10
6.0876085723
 20
2.7882344218
 10
6.1161081269
 20
2.8053115575
 10
6.1436302503
 20
2.823816398
 10
6.170116209
 20
2.843709453
 10
6.1955094806
 20
2.8649482696
 10
6.2197558747
 20
2.8874875232
 10
6.2428036481
 20
2.9112791138
 10
6.2646036157
 20
2.936272269
 10
6.2851092555
 20
2.9624136522
 10
6.3042768071
 20
2.9896474763
 10
6.3220653663
 20
3.017915623
 10
6.3384369712
 20
3.0471577666
 10
6.353356684
 20
3.0773115029
 10
6.3667926653
 20
3.1083124823
 10
6.3787162422
 20
3.1400945472
 10
6.3891019689
 20
3.172589873
 10
6.3979276819
 20
3.2057291131
 10
6.4051745467
 20
3.2394415466
 10
6.4108270981
 20
3.2736552296
 10
6.4148732732
 20
3.3082971483
 10
6.4173044373
 20
3.3432933751
 10
6.4181154022
 20
3.3785692263
  0
LWPOLYLINE
  5
131
330
1F
100
AcDbEntity
  8
0
  6
Continuous
 62
     7
370
    15
100
AcDbPolyline
 90
       16
 70
   128
 43
0.0
 10
5.2975814944
 20
3.9158803066
 10
5.2876126304
 20
3.9239330816
 10
5.2733469793
 20
3.9337110616
 10
5.2583534615
 20
3.9420851567
 10
5.2427859308
 20
3.9489694375
 10
5.2268041312
 20
3.9542932619
 10
5.2105720575
 20
3.9580020002
 10
5.1942562728
 20
3.9600575959
 10
5.1780241991
 20
3.9604389556
 10
5.1620423995
 20
3.9591421662
 10
5.1464748688
 20
3.9561805345
 10
5.131481351
 20
3.9515844507
 10
5.1172156999
 20
3.9454010769
 10
5.1038243003
 20
3.937693863
 10
5.0914445662
 20
3.9285418954
 10
5.0818709822
 20
3.9197558002
  0
ARC
  5
132
330
1F
100
AcDbEntity
  8
0
  6
Continuous
 62
     7
370
    15
100
AcDbCircle
 10
5.6298950128
 20
2.920698437
 30
0.0
 40
0.1883116122449982
100
AcDbArc
 50
49.0725154922
 51
66.685374603
  0
LWPOLYLINE
  5
133
330
1F
100
AcDbEntity
  8
0
  6
Continuous
 62
     7
370
    15
100
AcDbPolyline
 90
        3
 70
   128
 43
0.0
 10
5.5591411096
 20
3.08455231
 10
5.5471216465
 20
3.0756368507
 10
5.5375480626
 20
3.0668507555
  0
LWPOLYLINE
  5
134
330
1F
100
AcDbEntity
  8
0
  6
Continuous
 62
     7
370
    15
100
AcDbPolyline
 90
       25
 70
   128
 43
0.0
 10
6.2748349837
 20
3.6617859052
 10
6.2740086028
 20
3.6783136779
 10
6.2715379398
 20
3.6948800818
 10
6.267448347
 20
3.711315123
 10
6.2617817893
 20
3.7274501558
 10
6.2545964132
 20
3.743119613
 10
6.2459659502
 20
3.7581627047
 10
6.2359789608
 20
3.7724250684
 10
6.2247379249
 20
3.7857603531
 10
6.2123581908
 20
3.7980317205
 10
6.1989667912
 20
3.80911325
 10
6.18470114
 20
3.8188912299
 10
6.1697076222
 20
3.8272653251
 10
6.1541400916
 20
3.8341496058
 10
6.1381582919
 20
3.8394734302
 10
6.1219262183
 20
3.8431821686
 10
6.1056104336
 20
3.8452377643
 10
6.0893783599
 20
3.845619124
 10
6.0733965603
 20
3.8443223346
 10
6.0578290296
 20
3.8413607028
 10
6.0428355118
 20
3.836764619
 10
6.0285698607
 20
3.8305812453
 10
6.0151784611
 20
3.8228740314
 10
6.0027987269
 20
3.8137220637
 10
5.9932251429
 20
3.8049359686
  0
ARC
  5
135
330
1F
100
AcDbEntity
  8
0
  6
Continuous
 62
     7
370
    15
100
AcDbCircle
 10
6.1323661181
 20
3.6590198478
 30
0.0
 40
0.1424957148077404
100
AcDbArc
 50
308.2551423967
 51
1.1122676342
  0
LWPOLYLINE
  5
136
330
1F
100
AcDbEntity
  8
0
  6
Continuous
 62
     7
370
    15
100
AcDbPolyline
 90
       25
 70
   128
 43
0.0
 10
5.8191579034
 20
3.984360864
 10
5.8183315224
 20
4.0008886367
 10
5.8158608594
 20
4.0174550405
 10
5.8117712667
 20
4.0338900817
 10
5.8061047089
 20
4.0500251146
 10
5.7989193328
 20
4.0656945718
 10
5.7902888699
 20
4.0807376635
 10
5.7803018805
 20
4.0950000272
 10
5.7690608445
 20
4.1083353118
 10
5.7566811104
 20
4.1206066793
 10
5.7432897108
 20
4.1316882087
 10
5.7290240597
 20
4.1414661887
 10
5.7140305419
 20
4.1498402838
 10
5.6984630112
 20
4.1567245646
 10
5.6824812116
 20
4.162048389
 10
5.6662491379
 20
4.1657571274
 10
5.6499333532
 20
4.167812723
 10
5.6337012795
 20
4.1681940828
 10
5.6177194799
 20
4.1668972934
 10
5.6021519492
 20
4.1639356616
 10
5.5871584314
 20
4.1593395778
 10
5.5728927803
 20
4.1531562041
 10
5.5595013807
 20
4.1454489902
 10
5.5471216465
 20
4.1362970225
 10
5.5375480626
 20
4.1275109273
  0
ARC
  5
137
330
1F
100
AcDbEntity
  8
0
  6
Continuous
 62
     7
370
    15
100
AcDbCircle
 10
5.6766890378
 20
3.9815948066
 30
0.0
 40
0.1424957148077061
100
AcDbArc
 50
308.2551423965
 51
1.1122676342
  0
LWPOLYLINE
  5
138
330
1F
100
AcDbEntity
  8
0
  6
Continuous
 62
     7
370
    15
100
AcDbPolyline
 90
       14
 70
   128
 43
0.0
 10
5.6761463958
 20
3.5252987983
 10
5.667786465
 20
3.5285207742
 10
5.6580912455
 20
3.5305971843
 10
5.648396026
 20
3.5309637399
 10
5.6389953909
 20
3.5296093035
 10
5.6301749736
 20
3.5265750289
 10
5.6222027782
 20
3.5219531111
 10
5.6153210356
 20
3.5158839846
 10
5.6097388442
 20
3.5085520569
 10
5.6056258161
 20
3.5001801047
 10
5.6031069235
 20
3.4910225057
 10
5.6022587017
 20
3.4813575089
 10
5.6031069235
 20
3.4714787803
 10
5.6052586373
 20
3.4627816716
  0
LWPOLYLINE
  5
139
330
1F
100
AcDbEntity
  8
0
  6
Continuous
 62
     7
370
    15
100
AcDbPolyline
 90
       25
 70
   128
 43
0.0
 10
6.2748349837
 20
3.1314558193
 10
6.2740086028
 20
3.147983592
 10
6.2715379398
 20
3.1645499959
 10
6.267448347
 20
3.1809850371
 10
6.2617817893
 20
3.1971200699
 10
6.2545964132
 20
3.2127895271
 10
6.2459659502
 20
3.2278326188
 10
6.2359789608
 20
3.2420949825
 10
6.2247379249
 20
3.2554302672
 10
6.2123581908
 20
3.2677016346
 10
6.1989667912
 20
3.2787831641
 10
6.18470114
 20
3.288561144
 10
6.1697076222
 20
3.2969352392
 10
6.1541400916
 20
3.3038195199
 10
6.1381582919
 20
3.3091433443
 10
6.1219262183
 20
3.3128520827
 10
6.1056104336
 20
3.3149076783
 10
6.0893783599
 20
3.3152890381
 10
6.0733965603
 20
3.3139922487
 10
6.0578290296
 20
3.3110306169
 10
6.0428355118
 20
3.3064345331
 10
6.0285698607
 20
3.3002511594
 10
6.0151784611
 20
3.2925439455
 10
6.0027987269
 20
3.2833919778
 10
5.9932251429
 20
3.2746058827
  0
ARC
  5
13A
330
1F
100
AcDbEntity
  8
0
  6
Continuous
 62
     7
370
    15
100
AcDbCircle
 10
6.1323661181
 20
3.1286897619
 30
0.0
 40
0.1424957148077598
100
AcDbArc
 50
308.2551423969
 51
1.1122676342
  0
ARC
  5
13B
330
1F
100
AcDbEntity
  8
0
  6
Continuous
 62
     7
370
    15
100
AcDbCircle
 10
5.1743418589
 20
3.2422737213
 30
0.0
 40
0.1891812970736665
100
AcDbArc
 50
1.2121218629
 51
66.8396702634
  0
LWPOLYLINE
  5
13C
330
1F
100
AcDbEntity
  8
0
  6
Continuous
 62
     7
370
    15
100
AcDbPolyline
 90
        3
 70
   128
 43
0.0
 10
5.1034640292
 20
3.4071272688
 10
5.0914445662
 20
3.3982118095
 10
5.0818709822
 20
3.3894257143
  0
ARC
  5
13D
330
1F
100
AcDbEntity
  8
0
  6
Continuous
 62
     7
370
    15
100
AcDbCircle
 10
5.2210119574
 20
3.2435095935
 30
0.0
 40
0.1424957148076351
100
AcDbArc
 50
308.255142396
 51
1.1122676342
  0
LWPOLYLINE
  5
13E
330
1F
100
AcDbEntity
  8
0
  6
Continuous
 62
     7
370
    15
100
AcDbPolyline
 90
       11
 70
   128
 43
0.0
 10
5.7075750582
 20
3.5530162732
 10
5.7044673476
 20
3.555663623
 10
5.7018820003
 20
3.5598891793
 10
5.700974147
 20
3.5646037249
 10
5.7018820003
 20
3.569089513
 10
5.7044673476
 20
3.572663623
 10
5.7083365934
 20
3.5747819291
 10
5.7129006799
 20
3.5751219383
 10
5.7174647665
 20
3.5736318873
 10
5.7213340122
 20
3.570538623
 10
5.7235721344
 20
3.5671243683
  0
LWPOLYLINE
  5
13F
330
1F
100
AcDbEntity
  8
0
  6
Continuous
 62
     7
370
    15
100
AcDbPolyline
 90
       17
 70
   128
 43
0.0
 10
5.6152083441
 20
3.5754092004
 10
5.6143004908
 20
3.5709234123
 10
5.6117151435
 20
3.5673493023
 10
5.6078458977
 20
3.5652309963
 10
5.6032818112
 20
3.564890987
 10
5.5987177246
 20
3.566381038
 10
5.5948484789
 20
3.5694743023
 10
5.5922631315
 20
3.5736998586
 10
5.5913552782
 20
3.5784144042
 10
5.5922631315
 20
3.5829001923
 10
5.5948484789
 20
3.5864743023
 10
5.5987177246
 20
3.5885926084
 10
5.6032818112
 20
3.5889326176
 10
5.6078458977
 20
3.5874425667
 10
5.6117151435
 20
3.5843493023
 10
5.6143004908
 20
3.580123746
 10
5.6152083441
 20
3.5754092004
  0
LWPOLYLINE
  5
140
330
1F
100
AcDbEntity
  8
0
  6
Continuous
 62
     7
370
    15
100
AcDbPolyline
 90
       17
 70
   128
 43
0.0
 10
5.5603989097
 20
3.486631347
 10
5.5594910564
 20
3.4821455589
 10
5.5569057091
 20
3.4785714489
 10
5.5530364633
 20
3.4764531428
 10
5.5484723768
 20
3.4761131336
 10
5.5439082902
 20
3.4776031845
 10
5.5400390445
 20
3.4806964489
 10
5.5374536971
 20
3.4849220052
 10
5.5365458439
 20
3.4896365508
 10
5.5374536971
 20
3.4941223389
 10
5.5400390445
 20
3.4976964489
 10
5.5439082902
 20
3.499814755
 10
5.5484723768
 20
3.5001547642
 10
5.5530364633
 20
3.4986647132
 10
5.5569057091
 20
3.4955714489
 10
5.5594910564
 20
3.4913458926
 10
5.5603989097
 20
3.486631347
  0
LINE
  5
141
330
1F
100
AcDbEntity
  8
0
  6
Continuous
 62
     7
370
    15
100
AcDbLine
 10
6.0055353273
 20
3.8159389666
 30
0.0
 11
6.0042736864
 21
3.814679868
 31
0.0
  0
LINE
  5
142
330
1F
100
AcDbEntity
  8
0
  6
Continuous
 62
     7
370
    15
100
AcDbLine
 10
6.2316429397
 20
3.556867368
 30
0.0
 11
6.233049868
 21
3.5579617262
 31
0.0
  0
LINE
  5
143
330
1F
100
AcDbEntity
  8
0
  6
Continuous
 62
     7
370
    15
100
AcDbLine
 10
5.5498582469
 20
4.1385139254
 30
0.0
 11
5.548596606
 21
4.1372548268
 31
0.0
  0
LINE
  5
144
330
1F
100
AcDbEntity
  8
0
  6
Continuous
 62
     7
370
    15
100
AcDbLine
 10
5.7759658593
 20
3.8794423268
 30
0.0
 11
5.7773727876
 21
3.880536685
 31
0.0
  0
LINE
  5
145
330
1F
100
AcDbEntity
  8
0
  6
Continuous
 62
     7
370
    15
100
AcDbLine
 10
6.0055353273
 20
3.2856088807
 30
0.0
 11
6.0042736864
 21
3.2843497821
 31
0.0
  0
LINE
  5
146
330
1F
100
AcDbEntity
  8
0
  6
Continuous
 62
     7
370
    15
100
AcDbLine
 10
6.2316429397
 20
3.0265372821
 30
0.0
 11
6.233049868
 21
3.0276316403
 31
0.0
  0
LINE
  5
147
330
1F
100
AcDbEntity
  8
0
  6
Continuous
 62
     7
370
    15
100
AcDbLine
 10
5.7120226904
 20
3.5743476244
 30
0.0
 11
5.7120528628
 21
3.5751983423
 31
0.0
  0
ARC
  5
148
330
1F
100
AcDbEntity
  8
0
  6
Continuous
 62
     7
370
    15
100
AcDbCircle
 10
5.7260019735
 20
3.5746372025
 30
0.0
 40
0.0139822819838045
100
AcDbArc
 50
181.1867011452
 51
238.1501936054
  0
LINE
  5
149
330
1F
100
AcDbEntity
  8
0
  6
Continuous
 62
     7
370
    15
100
AcDbLine
 10
5.0941811666
 20
3.9307587983
 30
0.0
 11
5.0929195256
 21
3.9294996997
 31
0.0
  0
ARC
  5
14A
330
1F
100
AcDbEntity
  8
0
  6
Continuous
 62
     7
370
    15
100
AcDbCircle
 10
5.6668005627
 20
3.490554037
 30
0.0
 40
0.0536153635284903
100
AcDbArc
 50
142.2579487729
 51
199.6489081089
  0
LINE
  5
14B
330
1F
100
AcDbEntity
  8
0
  6
Continuous
 62
     7
370
    15
100
AcDbLine
 10
5.6024038217
 20
3.5881583037
 30
0.0
 11
5.6024339941
 21
3.5890090216
 31
0.0
  0
ARC
  5
14C
330
1F
100
AcDbEntity
  8
0
  6
Continuous
 62
     7
370
    15
100
AcDbCircle
 10
5.6161951282
 20
3.5883131145
 30
0.0
 40
0.0137921754202687
100
AcDbArc
 50
180.6431323492
 51
265.7714976664
  0
LINE
  5
14D
330
1F
100
AcDbEntity
  8
0
  6
Continuous
 62
     7
370
    15
100
AcDbLine
 10
5.5475943873
 20
3.4993804502
 30
0.0
 11
5.5476245597
 21
3.5002311682
 31
0.0
  0
ARC
  5
14E
330
1F
100
AcDbEntity
  8
0
  6
Continuous
 62
     7
370
    15
100
AcDbCircle
 10
5.5613856939
 20
3.4995352611
 30
0.0
 40
0.0137921754202708
100
AcDbArc
 50
180.6431323492
 51
265.7714976664
  0
LINE
  5
14F
330
1F
100
AcDbEntity
  8
0
  6
Continuous
 62
     7
370
    15
100
AcDbLine
 10
5.5498582469
 20
3.0778537536
 30
0.0
 11
5.548596606
 21
3.076594655
 31
0.0
  0
LINE
  5
150
330
1F
100
AcDbEntity
  8
0
  6
Continuous
 62
     7
370
    15
100
AcDbLine
 10
5.0941811666
 20
3.4004287124
 30
0.0
 11
5.0929195256
 21
3.3991696138
 31
0.0
  0
LINE
  5
151
330
1F
100
AcDbEntity
  8
0
  6
Continuous
 62
     7
370
    15
100
AcDbLine
 10
5.3202887789
 20
3.1413571138
 30
0.0
 11
5.3216957072
 21
3.142451472
 31
0.0
  0
LWPOLYLINE
  5
152
330
1F
100
AcDbEntity
  8
0
  6
Continuous
 62
     7
370
    15
100
AcDbPolyline
 90
       60
 70
   128
 43
0.0
 10
5.2229374925
 20
3.4196492708
 10
5.235977791
 20
3.4265583548
 10
5.2480423206
 20
3.4349389815
 10
5.2589943854
 20
3.4446961952
 10
5.2687098942
 20
3.4557194426
 10
5.2770787663
 20
3.4678838259
 10
5.2840061791
 20
3.4810515179
 10
5.2894136422
 20
3.4950733234
 10
5.293239887
 20
3.5097903696
 10
5.2954415604
 20
3.5250359065
 10
5.2959937167
 20
3.5406371962
 10
5.2948900998
 20
3.5564174698
 10
5.292143214
 20
3.5721979304
 10
5.2877841827
 20
3.5877997792
 10
5.2818623954
 20
3.603046241
 10
5.2744449483
 20
3.6177645673
 10
5.2656158842
 20
3.6317879935
 10
5.2554752398
 20
3.6449576286
 10
5.2441379126
 20
3.6571242555
 10
5.2317323591
 20
3.6681500212
 10
5.2183991392
 20
3.6779099997
 10
5.2042893237
 20
3.6862936063
 10
5.1895627822
 20
3.6932058514
 10
5.1743863726
 20
3.6985684166
 10
5.1589320494
 20
3.7023205419
 10
5.1433749165
 20
3.7044197141
 10
5.1278912422
 20
3.7048421489
 10
5.1126564629
 20
3.7035830598
 10
5.0978431947
 20
3.7006567128
 10
5.0836192778
 20
3.6960962647
 10
5.0701458749
 20
3.6899533871
 10
5.057575645
 20
3.6822976812
 10
5.0460510139
 20
3.6732158894
 10
5.0357025602
 20
3.6628109119
 10
5.026647536
 20
3.6512006412
 10
5.0189885384
 20
3.6385166264
 10
5.0128123469
 20
3.6249025824
 10
5.0081889402
 20
3.6105127619
 10
5.0051707034
 20
3.5955102071
 10
5.0037918342
 20
3.5800649031
 10
5.0040679559
 20
3.5643518513
 10
5.0059959398
 20
3.5485490868
 10
5.0095539411
 20
3.5328356614
 10
5.0147016463
 20
3.5173896144
 10
5.0213807297
 20
3.5023859556
 10
5.0295155148
 20
3.4879946825
 10
5.0390138311
 20
3.4743788541
 10
5.0497680589
 20
3.461692743
 10
5.0616563486
 20
3.4500800881
 10
5.074544001
 20
3.4396724652
 10
5.0882849939
 20
3.4305877969
 10
5.1027236363
 20
3.4229290162
 10
5.1176963327
 20
3.4167829001
 10
5.1330334365
 20
3.4122190866
 10
5.1485611721
 20
3.4092892854
 10
5.164103604
 20
3.4080266925
 10
5.1794846304
 20
3.4084456134
 10
5.194529978
 20
3.4105413016
 10
5.209069177
 20
3.4142900122
 10
5.2229374925
 20
3.4196492708
  0
LWPOLYLINE
  5
153
330
1F
100
AcDbEntity
  8
0
  6
Continuous
 62
     7
370
    15
100
AcDbPolyline
 90
       63
 70
   128
 43
0.0
 10
5.2302454171
 20
3.4059707998
 10
5.2439191138
 20
3.413165017
 10
5.2566276187
 20
3.4218293676
 10
5.2682405254
 20
3.4318749437
 10
5.2786386697
 20
3.4431986641
 10
5.2877153525
 20
3.4556843321
 10
5.295377435
 20
3.4692038278
 10
5.3015462936
 20
3.483618423
 10
5.3061586276
 20
3.4987802042
 10
5.3091671082
 20
3.5145335913
 10
5.3105408643
 20
3.5307169331
 10
5.3102657993
 20
3.5471641666
 10
5.3083447357
 20
3.5637065209
 10
5.3047973863
 20
3.5801742491
 10
5.2996601517
 20
3.59639837
 10
5.2929857468
 20
3.6122124023
 10
5.2848426601
 20
3.6274540724
 10
5.2753144506
 20
3.6419669803
 10
5.2644988907
 20
3.6556022039
 10
5.2525069626
 20
3.6682198274
 10
5.2394617199
 20
3.6796903767
 10
5.2254970242
 20
3.6898961487
 10
5.2107561723
 20
3.6987324182
 10
5.1953904253
 20
3.7061085132
 10
5.1795574566
 20
3.711948745
 10
5.1634197337
 20
3.7161931848
 10
5.1471428517
 20
3.718798279
 10
5.1308938332
 20
3.7197372958
 10
5.1148394153
 20
3.7190005997
 10
5.0991443381
 20
3.71659575
 10
5.0839696541
 20
3.7125474238
 10
5.0694710763
 20
3.7068971625
 10
5.0557973796
 20
3.6997029453
 10
5.0430888747
 20
3.6910385946
 10
5.031475968
 20
3.6809930185
 10
5.0210778237
 20
3.6696692981
 10
5.0120011408
 20
3.6571836301
 10
5.0043390584
 20
3.6436641344
 10
4.9981701997
 20
3.6292495393
 10
4.9935578657
 20
3.614087758
 10
4.9905493851
 20
3.5983343709
 10
4.9891756291
 20
3.5821510292
 10
4.9894506941
 20
3.5657037957
 10
4.9913717576
 20
3.5491614414
 10
4.994919107
 20
3.5326937131
 10
5.0000563417
 20
3.5164695922
 10
5.0067307466
 20
3.50065556
 10
5.0148738333
 20
3.4854138898
 10
5.0244020428
 20
3.4709009819
 10
5.0352176027
 20
3.4572657583
 10
5.0472095307
 20
3.4446481349
 10
5.0602547735
 20
3.4331775855
 10
5.0742194691
 20
3.4229718135
 10
5.088960321
 20
3.414135544
 10
5.104326068
 20
3.406759449
 10
5.1201590368
 20
3.4009192173
 10
5.1362967596
 20
3.3966747774
 10
5.1525736417
 20
3.3940696832
 10
5.1688226601
 20
3.3931306664
 10
5.184877078
 20
3.3938673626
 10
5.2005721553
 20
3.3962722123
 10
5.2157468393
 20
3.4003205384
 10
5.2302454171
 20
3.4059707998
  0
LWPOLYLINE
  5
154
330
1F
100
AcDbEntity
  8
0
  6
Continuous
 62
     7
370
    15
100
AcDbPolyline
 90
       60
 70
   128
 43
0.0
 10
5.0767790008
 20
2.6325585196
 10
5.0637387024
 20
2.6256494356
 10
5.0516741727
 20
2.6172688089
 10
5.0407221079
 20
2.6075115953
 10
5.0310065991
 20
2.5964883479
 10
5.022637727
 20
2.5843239645
 10
5.0157103142
 20
2.5711562725
 10
5.0103028511
 20
2.5571344671
 10
5.0064766064
 20
2.5424174209
 10
5.0042749329
 20
2.5271718839
 10
5.0037227766
 20
2.5115705942
 10
5.0048263936
 20
2.4957903207
 10
5.0075732793
 20
2.48000986
 10
5.0119323107
 20
2.4644080112
 10
5.017854098
 20
2.4491615494
 10
5.025271545
 20
2.4344432232
 10
5.0341006092
 20
2.4204197969
 10
5.0442412536
 20
2.4072501618
 10
5.0555785808
 20
2.395083535
 10
5.0679841342
 20
2.3840577692
 10
5.0813173541
 20
2.3742977908
 10
5.0954271697
 20
2.3659141842
 10
5.1101537111
 20
2.359001939
 10
5.1253301208
 20
2.3536393738
 10
5.1407844439
 20
2.3498872485
 10
5.1563415769
 20
2.3477880763
 10
5.1718252511
 20
2.3473656416
 10
5.1870600304
 20
2.3486247307
 10
5.2018732986
 20
2.3515510776
 10
5.2160972155
 20
2.3561115257
 10
5.2295706184
 20
2.3622544034
 10
5.2421408483
 20
2.3699101092
 10
5.2536654795
 20
2.378991901
 10
5.2640139332
 20
2.3893968786
 10
5.2730689573
 20
2.4010071492
 10
5.2807279549
 20
2.413691164
 10
5.2869041464
 20
2.427305208
 10
5.2915275531
 20
2.4416950286
 10
5.29454579
 20
2.4566975833
 10
5.2959246591
 20
2.4721428873
 10
5.2956485375
 20
2.4878559391
 10
5.2937205536
 20
2.5036587036
 10
5.2901625522
 20
2.519372129
 10
5.2850148471
 20
2.5348181761
 10
5.2783357636
 20
2.5498218348
 10
5.2702009785
 20
2.5642131079
 10
5.2607026622
 20
2.5778289363
 10
5.2499484344
 20
2.5905150474
 10
5.2380601448
 20
2.6021277024
 10
5.2251724924
 20
2.6125353253
 10
5.2114314995
 20
2.6216199935
 10
5.196992857
 20
2.6292787742
 10
5.1820201606
 20
2.6354248903
 10
5.1666830569
 20
2.6399887038
 10
5.1511553213
 20
2.642918505
 10
5.1356128893
 20
2.644181098
 10
5.120231863
 20
2.6437621771
 10
5.1051865154
 20
2.6416664888
 10
5.0906473164
 20
2.6379177782
 10
5.0767790008
 20
2.6325585196
  0
LWPOLYLINE
  5
155
330
1F
100
AcDbEntity
  8
0
  6
Continuous
 62
     7
370
    15
100
AcDbPolyline
 90
       63
 70
   128
 43
0.0
 10
5.0694710763
 20
2.6462369907
 10
5.0557973796
 20
2.6390427735
 10
5.0430888747
 20
2.6303784228
 10
5.031475968
 20
2.6203328467
 10
5.0210778237
 20
2.6090091263
 10
5.0120011408
 20
2.5965234583
 10
5.0043390584
 20
2.5830039626
 10
4.9981701997
 20
2.5685893675
 10
4.9935578657
 20
2.5534275862
 10
4.9905493851
 20
2.5376741991
 10
4.9891756291
 20
2.5214908574
 10
4.9894506941
 20
2.5050436239
 10
4.9913717576
 20
2.4885012696
 10
4.994919107
 20
2.4720335413
 10
5.0000563417
 20
2.4558094204
 10
5.0067307466
 20
2.4399953882
 10
5.0148738333
 20
2.424753718
 10
5.0244020428
 20
2.4102408101
 10
5.0352176027
 20
2.3966055865
 10
5.0472095307
 20
2.3839879631
 10
5.0602547735
 20
2.3725174137
 10
5.0742194691
 20
2.3623116417
 10
5.088960321
 20
2.3534753722
 10
5.104326068
 20
2.3460992772
 10
5.1201590368
 20
2.3402590454
 10
5.1362967596
 20
2.3360146056
 10
5.1525736417
 20
2.3334095114
 10
5.1688226601
 20
2.3324704946
 10
5.184877078
 20
2.3332071908
 10
5.2005721553
 20
2.3356120405
 10
5.2157468393
 20
2.3396603666
 10
5.2302454171
 20
2.345310628
 10
5.2439191138
 20
2.3525048452
 10
5.2566276187
 20
2.3611691958
 10
5.2682405254
 20
2.3712147719
 10
5.2786386697
 20
2.3825384923
 10
5.2877153525
 20
2.3950241603
 10
5.295377435
 20
2.408543656
 10
5.3015462936
 20
2.4229582511
 10
5.3061586276
 20
2.4381200324
 10
5.3091671082
 20
2.4538734195
 10
5.3105408643
 20
2.4700567613
 10
5.3102657993
 20
2.4865039947
 10
5.3083447357
 20
2.5030463491
 10
5.3047973863
 20
2.5195140773
 10
5.2996601517
 20
2.5357381982
 10
5.2929857468
 20
2.5515522305
 10
5.2848426601
 20
2.5667939006
 10
5.2753144506
 20
2.5813068085
 10
5.2644988907
 20
2.5949420321
 10
5.2525069626
 20
2.6075596555
 10
5.2394617199
 20
2.6190302049
 10
5.2254970242
 20
2.6292359769
 10
5.2107561723
 20
2.6380722464
 10
5.1953904253
 20
2.6454483414
 10
5.1795574566
 20
2.6512885732
 10
5.1634197337
 20
2.655533013
 10
5.1471428517
 20
2.6581381072
 10
5.1308938332
 20
2.659077124
 10
5.1148394153
 20
2.6583404278
 10
5.0991443381
 20
2.6559355782
 10
5.0839696541
 20
2.651887252
 10
5.0694710763
 20
2.6462369907
  0
LWPOLYLINE
  5
156
330
1F
100
AcDbEntity
  8
0
  6
Continuous
 62
     7
370
    15
100
AcDbPolyline
 90
       60
 70
   128
 43
0.0
 10
4.7672604121
 20
2.9367192393
 10
4.7533920966
 20
2.9455729849
 10
4.7388528976
 20
2.9529852293
 10
4.72380755
 20
2.9588719888
 10
4.7084265236
 20
2.9631665641
 10
4.6928840917
 20
2.9658202959
 10
4.6773563561
 20
2.9668031163
 10
4.6620192524
 20
2.9661038896
 10
4.6470465559
 20
2.9637305384
 10
4.6326079135
 20
2.9597099536
 10
4.6188669206
 20
2.9540876901
 10
4.6059792682
 20
2.9469274504
 10
4.5940909786
 20
2.9383103629
 10
4.5833367507
 20
2.9283340625
 10
4.5738384344
 20
2.9171115848
 10
4.5657036494
 20
2.9047700849
 10
4.5590245659
 20
2.891449397
 10
4.5538768607
 20
2.8773004497
 10
4.5503188594
 20
2.8624835563
 10
4.5483908755
 20
2.8471665982
 10
4.5481147539
 20
2.8315231225
 10
4.549493623
 20
2.8157303761
 10
4.5525118599
 20
2.7999672971
 10
4.5571352665
 20
2.7844124876
 10
4.563311458
 20
2.7692421897
 10
4.5709704556
 20
2.7546282889
 10
4.5800254798
 20
2.7407363666
 10
4.5903739335
 20
2.7277238238
 10
4.6018985647
 20
2.7157380979
 10
4.6144687945
 20
2.7049149918
 10
4.6279421975
 20
2.6953771358
 10
4.6421661144
 20
2.6872325975
 10
4.6569793826
 20
2.6805736578
 10
4.6722141619
 20
2.6754757652
 10
4.6876978361
 20
2.6719966807
 10
4.7032549691
 20
2.6701758239
 10
4.7187092922
 20
2.6700338258
 10
4.7338857019
 20
2.6715722952
 10
4.7486122433
 20
2.6747738007
 10
4.7627220589
 20
2.679602068
 10
4.7760552787
 20
2.6860023908
 10
4.7884608322
 20
2.6939022509
 10
4.7997981594
 20
2.7032121398
 10
4.8099388038
 20
2.7138265728
 10
4.818767868
 20
2.7256252839
 10
4.826185315
 20
2.7384745892
 10
4.8321071023
 20
2.7522289008
 10
4.8364661336
 20
2.766732377
 10
4.8392130194
 20
2.7818206875
 10
4.8403166364
 20
2.7973228757
 10
4.83976448
 20
2.8130632957
 10
4.8375628066
 20
2.8288636023
 10
4.8337365619
 20
2.8445447715
 10
4.8283290988
 20
2.8599291296
 10
4.821401686
 20
2.8748423655
 10
4.8130328138
 20
2.8891155064
 10
4.8033173051
 20
2.9025868319
 10
4.7923652402
 20
2.9151037065
 10
4.7803007106
 20
2.926524309
 10
4.7672604121
 20
2.9367192393
  0
LWPOLYLINE
  5
157
330
1F
100
AcDbEntity
  8
0
  6
Continuous
 62
     7
370
    15
100
AcDbPolyline
 90
       63
 70
   128
 43
0.0
 10
4.7745683367
 20
2.9485562864
 10
4.7600697589
 20
2.957859846
 10
4.7448950749
 20
2.9657318331
 10
4.7291999976
 20
2.9720914705
 10
4.7131455798
 20
2.9768734998
 10
4.6968965613
 20
2.9800288508
 10
4.6806196793
 20
2.9815251453
 10
4.6644819564
 20
2.9813470294
 10
4.6486489876
 20
2.9794963308
 10
4.6332832406
 20
2.9759920401
 10
4.6185423888
 20
2.9708701161
 10
4.6045776931
 20
2.9641831167
 10
4.5915324503
 20
2.9559996595
 10
4.5795405223
 20
2.9464037179
 10
4.5687249624
 20
2.9354937593
 10
4.5591967529
 20
2.9233817345
 10
4.5510536662
 20
2.9101919293
 10
4.5443792613
 20
2.896059689
 10
4.5392420266
 20
2.8811300295
 10
4.5356946772
 20
2.8655561494
 10
4.5337736137
 20
2.8494978576
 10
4.5334985487
 20
2.8331199339
 10
4.5348723048
 20
2.8165904382
 10
4.5378807854
 20
2.8000789853
 10
4.5424931194
 20
2.783755005
 10
4.548661978
 20
2.7677860036
 10
4.5563240604
 20
2.7523358446
 10
4.5654007433
 20
2.7375630675
 10
4.5757988876
 20
2.7236192611
 10
4.5874117943
 20
2.7106475075
 10
4.6001202992
 20
2.6987809146
 10
4.6137939959
 20
2.6881412497
 10
4.6282925737
 20
2.6788376902
 10
4.6434672577
 20
2.6709657031
 10
4.659162335
 20
2.6646060656
 10
4.6752167529
 20
2.6598240364
 10
4.6914657713
 20
2.6566686854
 10
4.7077426533
 20
2.6551723908
 10
4.7238803762
 20
2.6553505067
 10
4.739713345
 20
2.6572012054
 10
4.755079092
 20
2.6607054961
 10
4.7698199438
 20
2.66582742
 10
4.7837846395
 20
2.6725144195
 10
4.7968298823
 20
2.6806978766
 10
4.8088218103
 20
2.6902938182
 10
4.8196373702
 20
2.7012037769
 10
4.8291655797
 20
2.7133158017
 10
4.8373086664
 20
2.7265056068
 10
4.8439830713
 20
2.7406378471
 10
4.849120306
 20
2.7555675066
 10
4.8526676554
 20
2.7711413868
 10
4.8545887189
 20
2.7871996786
 10
4.8548637839
 20
2.8035776022
 10
4.8534900278
 20
2.820107098
 10
4.8504815472
 20
2.8366185509
 10
4.8458692132
 20
2.8529425311
 10
4.8397003546
 20
2.8689115325
 10
4.8320382722
 20
2.8843616915
 10
4.8229615893
 20
2.8991344686
 10
4.812563445
 20
2.9130782751
 10
4.8009505383
 20
2.9260500287
 10
4.7882420334
 20
2.9379166215
 10
4.7745683367
 20
2.9485562864
  0
LWPOLYLINE
  5
158
330
1F
100
AcDbEntity
  8
0
  6
Continuous
 62
     7
370
    15
100
AcDbPolyline
 90
       60
 70
   128
 43
0.0
 10
4.840339658
 20
3.3302646149
 10
4.8395116409
 20
3.3460274445
 10
4.8370369715
 20
3.3618203157
 10
4.8329436888
 20
3.3774642888
 10
4.8272781712
 20
3.3927821114
 10
4.8201046113
 20
3.4076002266
 10
4.8115042886
 20
3.421750739
 10
4.8015746479
 20
3.4350733178
 10
4.7904281962
 20
3.4474170127
 10
4.7781912272
 20
3.4586419649
 10
4.7650023907
 20
3.4686209911
 10
4.7510111213
 20
3.477241025
 10
4.7363759459
 20
3.4844043981
 10
4.7212626867
 20
3.4900299465
 10
4.7058425831
 20
3.4940539306
 10
4.690290351
 20
3.496430757
 10
4.6747822034
 20
3.4971334952
 10
4.6594938538
 20
3.4961541831
 10
4.6445985253
 20
3.4935039166
 10
4.6302649879
 20
3.4892127242
 10
4.6166556464
 20
3.483329227
 10
4.6039247
 20
3.4759200872
 10
4.5922163954
 20
3.4670692533
 10
4.5816633924
 20
3.456877009
 10
4.5723852608
 20
3.4454588363
 10
4.5644871254
 20
3.4329441078
 10
4.5580584754
 20
3.4194746202
 10
4.5531721498
 20
3.4052029884
 10
4.5498835127
 20
3.3902909155
 10
4.5482298257
 20
3.3749073613
 10
4.5482298257
 20
3.3592266277
 10
4.5498835127
 20
3.3434263835
 10
4.5531721498
 20
3.327685652
 10
4.5580584754
 20
3.3121827818
 10
4.5644871254
 20
3.2970934267
 10
4.5723852608
 20
3.2825885551
 10
4.5816633924
 20
3.268832513
 10
4.5922163954
 20
3.2559811619
 10
4.6039247
 20
3.2441801126
 10
4.6166556464
 20
3.2335630759
 10
4.6302649879
 20
3.2242503469
 10
4.6445985253
 20
3.2163474426
 10
4.6594938538
 20
3.209943906
 10
4.6747822034
 20
3.2051122919
 10
4.690290351
 20
3.2019073443
 10
4.7058425831
 20
3.2003653765
 10
4.7212626867
 20
3.2005038597
 10
4.7363759459
 20
3.2023212248
 10
4.7510111213
 20
3.2057968803
 10
4.7650023907
 20
3.2108914457
 10
4.7781912272
 20
3.2175471975
 10
4.7904281962
 20
3.2256887233
 10
4.8015746479
 20
3.2352237764
 10
4.8115042886
 20
3.2460443209
 10
4.8201046113
 20
3.2580277557
 10
4.8272781712
 20
3.2710383037
 10
4.8329436888
 20
3.2849285501
 10
4.8370369715
 20
3.2995411129
 10
4.8395116409
 20
3.314710426
 10
4.840339658
 20
3.3302646149
  0
LWPOLYLINE
  5
159
330
1F
100
AcDbEntity
  8
0
  6
Continuous
 62
     7
370
    15
100
AcDbPolyline
 90
       63
 70
   128
 43
0.0
 10
4.8549555071
 20
3.328423191
 10
4.854130626
 20
3.3449209677
 10
4.8516644469
 20
3.3614573055
 10
4.8475822763
 20
3.377862519
 10
4.8419260027
 20
3.3939682687
 10
4.8347536672
 20
3.4096092877
 10
4.8261388676
 20
3.4246250779
 10
4.8161700033
 20
3.4388615572
 10
4.8049493686
 20
3.4521726398
 10
4.7925921022
 20
3.4644217362
 10
4.7792250064
 20
3.475483154
 10
4.7649852457
 20
3.485243388
 10
4.7500189394
 20
3.4936022852
 10
4.734479662
 20
3.5004740718
 10
4.7185268674
 20
3.5057882341
 10
4.702324253
 20
3.5094902415
 10
4.6860380796
 20
3.5115421065
 10
4.6698354652
 20
3.5119227742
 10
4.6538826706
 20
3.5106283383
 10
4.6383433932
 20
3.5076720815
 10
4.6233770869
 20
3.5030843391
 10
4.6091373262
 20
3.4969121874
 10
4.5957702304
 20
3.4892189612
 10
4.583412964
 20
3.4800836033
 10
4.5721923293
 20
3.4695998548
 10
4.5622234651
 20
3.4578752932
 10
4.5536086654
 20
3.4450302284
 10
4.5464363299
 20
3.4311964682
 10
4.5407800563
 20
3.4165159655
 10
4.5366978857
 20
3.4011393623
 10
4.5342317066
 20
3.3852244432
 10
4.5334068255
 20
3.368934517
 10
4.5342317066
 20
3.3524367402
 10
4.5366978857
 20
3.3359004025
 10
4.5407800563
 20
3.3194951889
 10
4.5464363299
 20
3.3033894393
 10
4.5536086654
 20
3.2877484203
 10
4.5622234651
 20
3.2727326301
 10
4.5721923293
 20
3.2584961508
 10
4.583412964
 20
3.2451850681
 10
4.5957702304
 20
3.2329359718
 10
4.6091373262
 20
3.221874554
 10
4.6233770869
 20
3.2121143199
 10
4.6383433932
 20
3.2037554228
 10
4.6538826706
 20
3.1968836362
 10
4.6698354652
 20
3.1915694739
 10
4.6860380796
 20
3.1878674664
 10
4.702324253
 20
3.1858156015
 10
4.7185268674
 20
3.1854349338
 10
4.734479662
 20
3.1867293697
 10
4.7500189394
 20
3.1896856265
 10
4.7649852457
 20
3.1942733689
 10
4.7792250064
 20
3.2004455205
 10
4.7925921022
 20
3.2081387468
 10
4.8049493686
 20
3.2172741047
 10
4.8161700033
 20
3.2277578532
 10
4.8261388676
 20
3.2394824147
 10
4.8347536672
 20
3.2523274795
 10
4.8419260027
 20
3.2661612398
 10
4.8475822763
 20
3.2808417425
 10
4.8516644469
 20
3.2962183457
 10
4.854130626
 20
3.3121332648
 10
4.8549555071
 20
3.328423191
  0
LWPOLYLINE
  5
15A
330
1F
100
AcDbEntity
  8
0
  6
Continuous
 62
     7
370
    15
100
AcDbPolyline
 90
       60
 70
   128
 43
0.0
 10
5.5324560812
 20
3.1154885511
 10
5.5463243967
 20
3.1066348055
 10
5.5608635958
 20
3.0992225611
 10
5.5759089434
 20
3.0933358016
 10
5.5912899697
 20
3.0890412263
 10
5.6068324017
 20
3.0863874946
 10
5.6223601372
 20
3.0854046741
 10
5.637697241
 20
3.0861039008
 10
5.6526699374
 20
3.088477252
 10
5.6671085799
 20
3.0924978368
 10
5.6808495728
 20
3.0981201003
 10
5.6937372251
 20
3.10528034
 10
5.7056255148
 20
3.1138974276
 10
5.7163797426
 20
3.1238737279
 10
5.7258780589
 20
3.1350962056
 10
5.734012844
 20
3.1474377055
 10
5.7406919274
 20
3.1607583934
 10
5.7458396326
 20
3.1749073407
 10
5.7493976339
 20
3.1897242341
 10
5.7513256178
 20
3.2050411922
 10
5.7516017395
 20
3.2206846679
 10
5.7502228703
 20
3.2364774143
 10
5.7472046335
 20
3.2522404933
 10
5.7425812268
 20
3.2677953028
 10
5.7364050353
 20
3.2829656008
 10
5.7287460377
 20
3.2975795016
 10
5.7196910135
 20
3.3114714238
 10
5.7093425598
 20
3.3244839666
 10
5.6978179287
 20
3.3364696925
 10
5.6852476988
 20
3.3472927986
 10
5.6717742959
 20
3.3568306546
 10
5.657550379
 20
3.3649751929
 10
5.6427371108
 20
3.3716341326
 10
5.6275023315
 20
3.3767320253
 10
5.6120186573
 20
3.3802111097
 10
5.5964615243
 20
3.3820319665
 10
5.5810072012
 20
3.3821739646
 10
5.5658307915
 20
3.3806354952
 10
5.5511042501
 20
3.3774339897
 10
5.5369944345
 20
3.3726057224
 10
5.5236612146
 20
3.3662053996
 10
5.5112556611
 20
3.3583055395
 10
5.499918334
 20
3.3489956506
 10
5.4897776895
 20
3.3383812177
 10
5.4809486254
 20
3.3265825065
 10
5.4735311783
 20
3.3137332012
 10
5.467609391
 20
3.2999788896
 10
5.4632503597
 20
3.2854754134
 10
5.4605034739
 20
3.2703871029
 10
5.459399857
 20
3.2548849147
 10
5.4599520133
 20
3.2391444947
 10
5.4621536868
 20
3.2233441882
 10
5.4659799315
 20
3.2076630189
 10
5.4713873946
 20
3.1922786609
 10
5.4783148074
 20
3.1773654249
 10
5.4866836795
 20
3.163092284
 10
5.4963991883
 20
3.1496209585
 10
5.5073512531
 20
3.1371040839
 10
5.5194157827
 20
3.1256834815
 10
5.5324560812
 20
3.1154885511
  0
LWPOLYLINE
  5
15B
330
1F
100
AcDbEntity
  8
0
  6
Continuous
 62
     7
370
    15
100
AcDbPolyline
 90
       63
 70
   128
 43
0.0
 10
5.5251481566
 20
3.103651504
 10
5.5396467345
 20
3.0943479444
 10
5.5548214184
 20
3.0864759573
 10
5.5705164957
 20
3.0801163199
 10
5.5865709136
 20
3.0753342906
 10
5.602819932
 20
3.0721789397
 10
5.6190968141
 20
3.0706826451
 10
5.6352345369
 20
3.070860761
 10
5.6510675057
 20
3.0727114596
 10
5.6664332527
 20
3.0762157503
 10
5.6811741046
 20
3.0813376743
 10
5.6951388002
 20
3.0880246737
 10
5.708184043
 20
3.0962081309
 10
5.7201759711
 20
3.1058040725
 10
5.730991531
 20
3.1167140312
 10
5.7405197404
 20
3.1288260559
 10
5.7486628272
 20
3.1420158611
 10
5.7553372321
 20
3.1561481014
 10
5.7604744667
 20
3.1710777609
 10
5.7640218161
 20
3.1866516411
 10
5.7659428797
 20
3.2027099329
 10
5.7662179447
 20
3.2190878565
 10
5.7648441886
 20
3.2356173522
 10
5.761835708
 20
3.2521288052
 10
5.757223374
 20
3.2684527854
 10
5.7510545153
 20
3.2844217868
 10
5.7433924329
 20
3.2998719458
 10
5.73431575
 20
3.3146447229
 10
5.7239176057
 20
3.3285885294
 10
5.7123046991
 20
3.3415602829
 10
5.6995961942
 20
3.3534268758
 10
5.6859224975
 20
3.3640665407
 10
5.6714239196
 20
3.3733701003
 10
5.6562492357
 20
3.3812420874
 10
5.6405541584
 20
3.3876017248
 10
5.6244997405
 20
3.392383754
 10
5.6082507221
 20
3.395539105
 10
5.59197384
 20
3.3970353996
 10
5.5758361172
 20
3.3968572837
 10
5.5600031484
 20
3.3950065851
 10
5.5446374014
 20
3.3915022944
 10
5.5298965495
 20
3.3863803704
 10
5.5159318539
 20
3.379693371
 10
5.5028866111
 20
3.3715099138
 10
5.490894683
 20
3.3619139722
 10
5.4800791231
 20
3.3510040135
 10
5.4705509137
 20
3.3388919887
 10
5.4624078269
 20
3.3257021836
 10
5.455733422
 20
3.3115699433
 10
5.4505961874
 20
3.2966402838
 10
5.447048838
 20
3.2810664036
 10
5.4451277744
 20
3.2650081118
 10
5.4448527094
 20
3.2486301882
 10
5.4462264655
 20
3.2321006924
 10
5.4492349461
 20
3.2155892395
 10
5.4538472801
 20
3.1992652593
 10
5.4600161388
 20
3.1832962579
 10
5.4676782212
 20
3.1678460989
 10
5.4767549041
 20
3.1530733218
 10
5.4871530484
 20
3.1391295153
 10
5.498765955
 20
3.1261577618
 10
5.5114744599
 20
3.1142911689
 10
5.5251481566
 20
3.103651504
  0
LWPOLYLINE
  5
15C
330
1F
100
AcDbEntity
  8
0
  6
Continuous
 62
     7
370
    15
100
AcDbPolyline
 90
       60
 70
   128
 43
0.0
 10
5.4593768354
 20
2.7219431755
 10
5.4602048524
 20
2.7061803459
 10
5.4626795218
 20
2.6903874748
 10
5.4667728046
 20
2.6747435016
 10
5.4724383222
 20
2.659425679
 10
5.479611882
 20
2.6446075639
 10
5.4882122048
 20
2.6304570514
 10
5.4981418454
 20
2.6171344727
 10
5.5092882971
 20
2.6047907777
 10
5.5215252661
 20
2.5935658255
 10
5.5347141027
 20
2.5835867993
 10
5.548705372
 20
2.5749667654
 10
5.5633405475
 20
2.5678033924
 10
5.5784538066
 20
2.5621778439
 10
5.5938739102
 20
2.5581538598
 10
5.6094261423
 20
2.5557770335
 10
5.6249342899
 20
2.5550742952
 10
5.6402226395
 20
2.5560536073
 10
5.655117968
 20
2.5587038738
 10
5.6694515054
 20
2.5629950662
 10
5.6830608469
 20
2.5688785635
 10
5.6957917933
 20
2.5762877033
 10
5.7075000979
 20
2.5851385371
 10
5.7180531009
 20
2.5953307814
 10
5.7273312326
 20
2.6067489541
 10
5.7352293679
 20
2.6192636826
 10
5.741658018
 20
2.6327331702
 10
5.7465443436
 20
2.6470048021
 10
5.7498329807
 20
2.6619168749
 10
5.7514866677
 20
2.6773004291
 10
5.7514866677
 20
2.6929811628
 10
5.7498329807
 20
2.7087814069
 10
5.7465443436
 20
2.7245221384
 10
5.741658018
 20
2.7400250086
 10
5.7352293679
 20
2.7551143637
 10
5.7273312326
 20
2.7696192353
 10
5.7180531009
 20
2.7833752774
 10
5.7075000979
 20
2.7962266285
 10
5.6957917933
 20
2.8080276778
 10
5.6830608469
 20
2.8186447146
 10
5.6694515054
 20
2.8279574436
 10
5.655117968
 20
2.8358603479
 10
5.6402226395
 20
2.8422638844
 10
5.6249342899
 20
2.8470954985
 10
5.6094261423
 20
2.8503004461
 10
5.5938739102
 20
2.8518424139
 10
5.5784538066
 20
2.8517039307
 10
5.5633405475
 20
2.8498865656
 10
5.548705372
 20
2.8464109101
 10
5.5347141027
 20
2.8413163447
 10
5.5215252661
 20
2.834660593
 10
5.5092882971
 20
2.8265190671
 10
5.4981418454
 20
2.816984014
 10
5.4882122048
 20
2.8061634695
 10
5.479611882
 20
2.7941800347
 10
5.4724383222
 20
2.7811694867
 10
5.4667728046
 20
2.7672792403
 10
5.4626795218
 20
2.7526666775
 10
5.4602048524
 20
2.7374973645
 10
5.4593768354
 20
2.7219431755
  0
LWPOLYLINE
  5
15D
330
1F
100
AcDbEntity
  8
0
  6
Continuous
 62
     7
370
    15
100
AcDbPolyline
 90
       63
 70
   128
 43
0.0
 10
5.4447609862
 20
2.7237845994
 10
5.4455858674
 20
2.7072868227
 10
5.4480520464
 20
2.6907504849
 10
5.452134217
 20
2.6743452714
 10
5.4577904906
 20
2.6582395217
 10
5.4649628262
 20
2.6425985028
 10
5.4735776258
 20
2.6275827125
 10
5.48354649
 20
2.6133462333
 10
5.4947671248
 20
2.6000351506
 10
5.5071243912
 20
2.5877860542
 10
5.520491487
 20
2.5767246365
 10
5.5347312476
 20
2.5669644024
 10
5.5496975539
 20
2.5586055052
 10
5.5652368314
 20
2.5517337186
 10
5.5811896259
 20
2.5464195563
 10
5.5973922403
 20
2.5427175489
 10
5.6136784138
 20
2.5406656839
 10
5.6298810282
 20
2.5402850163
 10
5.6458338227
 20
2.5415794522
 10
5.6613731001
 20
2.5445357089
 10
5.6763394065
 20
2.5491234514
 10
5.6905791671
 20
2.555295603
 10
5.7039462629
 20
2.5629888292
 10
5.7163035293
 20
2.5721241872
 10
5.7275241641
 20
2.5826079356
 10
5.7374930283
 20
2.5943324972
 10
5.7461078279
 20
2.607177562
 10
5.7532801635
 20
2.6210113223
 10
5.7589364371
 20
2.6356918249
 10
5.7630186077
 20
2.6510684282
 10
5.7654847867
 20
2.6669833472
 10
5.7663096679
 20
2.6832732734
 10
5.7654847867
 20
2.6997710502
 10
5.7630186077
 20
2.7163073879
 10
5.7589364371
 20
2.7327126015
 10
5.7532801635
 20
2.7488183511
 10
5.7461078279
 20
2.7644593701
 10
5.7374930283
 20
2.7794751604
 10
5.7275241641
 20
2.7937116396
 10
5.7163035293
 20
2.8070227223
 10
5.7039462629
 20
2.8192718187
 10
5.6905791671
 20
2.8303332364
 10
5.6763394065
 20
2.8400934705
 10
5.6613731001
 20
2.8484523676
 10
5.6458338227
 20
2.8553241543
 10
5.6298810282
 20
2.8606383165
 10
5.6136784138
 20
2.864340324
 10
5.5973922403
 20
2.866392189
 10
5.5811896259
 20
2.8667728566
 10
5.5652368314
 20
2.8654784207
 10
5.5496975539
 20
2.862522164
 10
5.5347312476
 20
2.8579344215
 10
5.520491487
 20
2.8517622699
 10
5.5071243912
 20
2.8440690436
 10
5.4947671248
 20
2.8349336857
 10
5.48354649
 20
2.8244499373
 10
5.4735776258
 20
2.8127253757
 10
5.4649628262
 20
2.7998803109
 10
5.4577904906
 20
2.7860465506
 10
5.452134217
 20
2.7713660479
 10
5.4480520464
 20
2.7559894447
 10
5.4455858674
 20
2.7400745257
 10
5.4447609862
 20
2.7237845994
  0
ARC
  5
15E
330
1F
100
AcDbEntity
  8
0
  6
Continuous
 62
     7
370
    15
100
AcDbCircle
 10
6.0962479804
 20
4.0732837957
 30
0.0
 40
0.6530977585868883
100
AcDbArc
 50
131.6307364497
 51
163.0864926666
  0
ARC
  5
15F
330
1F
100
AcDbEntity
  8
0
  6
Continuous
 62
     7
370
    15
100
AcDbCircle
 10
5.6824606499
 20
4.5382633878
 30
0.0
 40
0.0306647531601247
100
AcDbArc
 50
89.7567816591
 51
130.9144834178
  0
SPLINE
  5
160
330
1F
100
AcDbEntity
  8
0
  6
Continuous
 62
     7
370
    15
100
AcDbSpline
210
0.0
220
0.0
230
1.0
 70
     8
 71
     3
 72
    11
 73
     7
 74
     0
 42
0.000000001
 43
0.00000001
 40
0.0
 40
0.0
 40
0.0
 40
0.0
 40
0.2709616674080945
 40
0.5444933586610519
 40
0.7669211993742516
 40
1.0
 40
1.0
 40
1.0
 40
1.0
 10
5.807713542584764
 20
4.533448742125487
 30
0.0
 10
5.797101968381924
 20
4.53961696176916
 30
0.0
 10
5.775778171057915
 20
4.552011905536923
 30
0.0
 10
5.743265236252215
 20
4.562458039881646
 30
0.0
 10
5.711991950599224
 20
4.568189223764003
 30
0.0
 10
5.692542788097734
 20
4.568677842633678
 30
0.0
 10
5.682590820206118
 20
4.56892786467457
 30
0.0
  0
LWPOLYLINE
  5
161
330
1F
100
AcDbEntity
  8
0
  6
Continuous
 62
     7
370
    15
100
AcDbPolyline
 90
       17
 70
   128
 43
0.0
 10
5.8077135426
 20
4.5334487421
 10
5.8155429841
 20
4.5288868077
 10
5.8239140629
 20
4.5258648591
 10
5.8325050832
 20
4.5244990281
 10
5.8409858967
 20
4.5248418029
 10
5.8490305907
 20
4.5268800108
 10
5.856330012
 20
4.5305353245
 10
5.862603648
 20
4.5356672725
 10
5.8676104064
 20
4.5420786369
 10
5.8711578802
 20
4.5495230326
 10
5.873109742
 20
4.5577143755
 10
5.8733909829
 20
4.5663378769
 10
5.8719907949
 20
4.5750621406
 10
5.8689629865
 20
4.583551898
 10
5.8644239146
 20
4.5914808925
 10
5.8585480133
 20
4.5985444172
 10
5.8515610901
 20
4.6044710249
  0
SPLINE
  5
162
330
1F
100
AcDbEntity
  8
0
  6
Continuous
 62
     7
370
    15
100
AcDbSpline
210
0.0
220
0.0
230
1.0
 70
     8
 71
     3
 72
     9
 73
     5
 74
     0
 42
0.000000001
 43
0.00000001
 40
0.0
 40
0.0
 40
0.0
 40
0.0
 40
0.5736392582027331
 40
1.0
 40
1.0
 40
1.0
 40
1.0
 10
5.851561090087457
 20
4.604471024864301
 30
0.0
 10
5.847146331115643
 20
4.611297821714032
 30
0.0
 10
5.839450276655133
 20
4.623198675346541
 30
0.0
 10
5.836341987931917
 20
4.636574505457739
 30
0.0
 10
5.835016735646167
 20
4.642277434306102
 30
0.0
  0
ARC
  5
163
330
1F
100
AcDbEntity
  8
0
  6
Continuous
 62
     7
370
    15
100
AcDbCircle
 10
5.8654886488
 20
4.6486850171
 30
0.0
 40
0.0311383141694586
100
AcDbArc
 50
112.4169742961
 51
191.8750513881
  0
LWPOLYLINE
  5
164
330
1F
100
AcDbEntity
  8
0
  6
Continuous
 62
     7
370
    15
100
AcDbPolyline
 90
       16
 70
   128
 43
0.0
 10
6.3966233263
 20
4.6667455179
 10
6.3604424606
 20
4.6801472126
 10
6.3238753417
 20
4.6918011787
 10
6.2870097122
 20
4.7016794525
 10
6.2499340311
 20
4.7097583311
 10
6.2127372613
 20
4.7160184294
 10
6.1755086566
 20
4.7204447261
 10
6.1383375467
 20
4.7230266004
 10
6.1013131236
 20
4.7237578572
 10
6.0645242274
 20
4.7226367417
 10
6.0280591329
 20
4.7196659441
 10
5.992005338
 20
4.7148525928
 10
5.9564493536
 20
4.7082082374
 10
5.9214764963
 20
4.699748821
 10
5.8871706833
 20
4.689494642
 10
5.8536142313
 20
4.6774703053
  0
ARC
  5
165
330
1F
100
AcDbEntity
  8
0
  6
Continuous
 62
     7
370
    15
100
AcDbCircle
 10
6.3810324607
 20
4.6280555339
 30
0.0
 40
0.0417131867745293
100
AcDbArc
 50
34.6312305715
 51
68.0520914111
  0
SPLINE
  5
166
330
1F
100
AcDbEntity
  8
0
  6
Continuous
 62
     7
370
    15
100
AcDbSpline
210
0.0
220
0.0
230
1.0
 70
     8
 71
     3
 72
    11
 73
     7
 74
     0
 42
0.000000001
 43
0.00000001
 40
0.0
 40
0.0
 40
0.0
 40
0.0
 40
0.270961667408094
 40
0.5444933586610521
 40
0.7669211993742524
 40
1.0
 40
1.0
 40
1.0
 40
1.0
 10
6.460976648064087
 20
4.526939417540511
 30
0.0
 10
6.459822061875325
 20
4.538763066545984
 30
0.0
 10
6.457501938450501
 20
4.562522509791967
 30
0.0
 10
6.446701505366707
 20
4.595437797407267
 30
0.0
 10
6.432603852055486
 20
4.625407056558531
 30
0.0
 10
6.421193674634013
 20
4.642840351981064
 30
0.0
 10
6.41535518573623
 20
4.651760818159327
 30
0.0
  0
LWPOLYLINE
  5
167
330
1F
100
AcDbEntity
  8
0
  6
Continuous
 62
     7
370
    15
100
AcDbPolyline
 90
       17
 70
   128
 43
0.0
 10
6.4609766481
 20
4.5269394175
 10
6.4618191664
 20
4.5182114146
 10
6.4643143439
 20
4.5096065293
 10
6.4683662922
 20
4.5014554424
 10
6.4738192974
 20
4.4940713958
 10
6.4804638034
 20
4.4877381542
 10
6.4880444656
 20
4.4826991004
 10
6.4962699634
 20
4.4791478826
 10
6.5048241956
 20
4.477220972
 10
6.5133784277
 20
4.4769924187
 10
6.5216039255
 20
4.4784710059
 10
6.5291845878
 20
4.4815999123
 10
6.5358290937
 20
4.4862588958
 10
6.5412820989
 20
4.4922689143
 10
6.5453340473
 20
4.4993990061
 10
6.5478292247
 20
4.5073751658
 10
6.5486717431
 20
4.5158908741
  0
SPLINE
  5
168
330
1F
100
AcDbEntity
  8
0
  6
Continuous
 62
     7
370
    15
100
AcDbSpline
210
0.0
220
0.0
230
1.0
 70
     8
 71
     3
 72
     9
 73
     5
 74
     0
 42
0.000000001
 43
0.00000001
 40
0.0
 40
0.0
 40
0.0
 40
0.0
 40
0.5736392582027353
 40
1.0
 40
1.0
 40
1.0
 40
1.0
 10
6.548671743069477
 20
4.515890874089635
 30
0.0
 10
6.551852260653299
 20
4.522478978844219
 30
0.0
 10
6.55739671657807
 20
4.533963731082454
 30
0.0
 10
6.566999043960981
 20
4.541959199647258
 30
0.0
 10
6.571093099386939
 20
4.545368153555564
 30
0.0
  0
ARC
  5
169
330
1F
100
AcDbEntity
  8
0
  6
Continuous
 62
     7
370
    15
100
AcDbCircle
 10
6.5900559165
 20
4.5161251872
 30
0.0
 40
0.0348531134278337
100
AcDbArc
 50
49.6020585581
 51
122.9616894542
  0
ARC
  5
16A
330
1F
100
AcDbEntity
  8
0
  6
Continuous
 62
     7
370
    15
100
AcDbCircle
 10
6.05681876
 20
3.8262126474
 30
0.0
 40
0.9067799597826212
100
AcDbArc
 50
14.7501892595
 51
52.1957323942
  0
ARC
  5
16B
330
1F
100
AcDbEntity
  8
0
  6
Continuous
 62
     7
370
    15
100
AcDbCircle
 10
6.9001520908
 20
4.048009088
 30
0.0
 40
0.0347688416376272
100
AcDbArc
 50
337.3280663167
 51
15.1289504876
  0
SPLINE
  5
16C
330
1F
100
AcDbEntity
  8
0
  6
Continuous
 62
     7
370
    15
100
AcDbSpline
210
0.0
220
0.0
230
1.0
 70
     8
 71
     3
 72
    11
 73
     7
 74
     0
 42
0.000000001
 43
0.00000001
 40
0.0
 40
0.0
 40
0.0
 40
0.0
 40
0.270961667408094
 40
0.5444933586610516
 40
0.7669211993742517
 40
1.0
 40
1.0
 40
1.0
 40
1.0
 10
6.852732980237283
 20
3.945265017687538
 30
0.0
 10
6.862189968251361
 20
3.950920447049338
 30
0.0
 10
6.881193642150544
 20
3.962284946527558
 30
0.0
 10
6.902906143872451
 20
3.984754099798135
 30
0.0
 10
6.920081776214222
 20
4.008992175067041
 30
0.0
 10
6.928120761294237
 20
4.0259368516199
 30
0.0
 10
6.932234240288069
 20
4.034607295757271
 30
0.0
  0
LWPOLYLINE
  5
16D
330
1F
100
AcDbEntity
  8
0
  6
Continuous
 62
     7
370
    15
100
AcDbPolyline
 90
       17
 70
   128
 43
0.0
 10
6.8527329802
 20
3.9452650177
 10
6.845746057
 20
3.9410989492
 10
6.8398701557
 20
3.9355160124
 10
6.8353310839
 20
3.9287307566
 10
6.8323032754
 20
3.9210039352
 10
6.8309030875
 20
3.9126324857
 10
6.8311843283
 20
3.9039381182
 10
6.8331361902
 20
3.8952549523
 10
6.836683664
 20
3.8869166773
 10
6.8416904223
 20
3.8792437284
 10
6.8479640583
 20
3.8725309727
 10
6.8552634796
 20
3.8670363777
 10
6.8633081736
 20
3.8629710975
 10
6.8717889872
 20
3.8604913585
 10
6.8803800074
 20
3.8596924559
 10
6.8887510862
 20
3.8606050909
 10
6.8965805277
 20
3.8631941915
  0
SPLINE
  5
16E
330
1F
100
AcDbEntity
  8
0
  6
Continuous
 62
     7
370
    15
100
AcDbSpline
210
0.0
220
0.0
230
1.0
 70
     8
 71
     3
 72
     9
 73
     5
 74
     0
 42
0.000000001
 43
0.00000001
 40
0.0
 40
0.0
 40
0.0
 40
0.0
 40
0.5736392582027304
 40
1.0
 40
1.0
 40
1.0
 40
1.0
 10
6.896580527739977
 20
3.863194191497849
 30
0.0
 10
6.904175804295615
 20
3.8629554994027
 30
0.0
 10
6.917416314680894
 20
3.862539398008427
 30
0.0
 10
6.930126930787021
 20
3.857159036462034
 30
0.0
 10
6.935546238498729
 20
3.854865061521977
 30
0.0
  0
ARC
  5
16F
330
1F
100
AcDbEntity
  8
0
  6
Continuous
 62
     7
370
    15
100
AcDbCircle
 10
6.9175386985
 20
3.8180587421
 30
0.0
 40
0.0409753175020304
100
AcDbArc
 50
358.4802539068
 51
63.9297476462
  0
LWPOLYLINE
  5
170
330
1F
100
AcDbEntity
  8
0
  6
Continuous
 62
     7
370
    15
100
AcDbPolyline
 90
       16
 70
   128
 43
0.0
 10
6.7365624234
 20
3.3421123127
 10
6.7622513402
 20
3.3660353951
 10
6.7865898646
 20
3.3913639564
 10
6.8095195961
 20
3.4180372208
 10
6.8309855151
 20
3.4459911859
 10
6.8509361142
 20
3.4751587762
 10
6.8693235218
 20
3.5054700043
 10
6.8861036176
 20
3.5368521383
 10
6.9012361376
 20
3.569229877
 10
6.9146847715
 20
3.60252553
 10
6.9264172494
 20
3.6366592045
 10
6.936405419
 20
3.6715489969
 10
6.9446253139
 20
3.7071111893
 10
6.9510572105
 20
3.7432604501
 10
6.9556856755
 20
3.7799100395
 10
6.9584996027
 20
3.8169720167
  0
ARC
  5
171
330
1F
100
AcDbEntity
  8
0
  6
Continuous
 62
     7
370
    15
100
AcDbCircle
 10
6.7164790996
 20
3.3652852967
 30
0.0
 40
0.0306647531601258
100
AcDbArc
 50
269.7567816591
 51
310.9144834178
  0
SPLINE
  5
172
330
1F
100
AcDbEntity
  8
0
  6
Continuous
 62
     7
370
    15
100
AcDbSpline
210
0.0
220
0.0
230
1.0
 70
     8
 71
     3
 72
    11
 73
     7
 74
     0
 42
0.000000001
 43
0.00000001
 40
0.0
 40
0.0
 40
0.0
 40
0.0
 40
0.1355363764542486
 40
0.4598789883639175
 40
0.7236247594220541
 40
1.0
 40
1.0
 40
1.0
 40
1.0
 10
6.609883572322328
 20
3.360114165361323
 30
0.0
 10
6.614383785515629
 20
3.357579443491983
 30
0.0
 10
6.629653143786068
 20
3.348979056204444
 30
0.0
 10
6.655716755699862
 20
3.341210168175607
 30
0.0
 10
6.68693761656879
 20
3.335330650179742
 30
0.0
 10
6.706393514802428
 20
3.334861089831239
 30
0.0
 10
6.716348929309806
 20
3.334620819870457
 30
0.0
  0
LINE
  5
173
330
1F
100
AcDbEntity
  8
0
  6
Continuous
 62
     7
370
    15
100
AcDbLine
 10
6.54381014
 20
3.3018428753
 30
0.0
 11
6.5473786594
 21
3.2990776597
 31
0.0
  0
SPLINE
  5
174
330
1F
100
AcDbEntity
  8
0
  6
Continuous
 62
     7
370
    15
100
AcDbSpline
210
0.0
220
0.0
230
1.0
 70
     8
 71
     3
 72
     9
 73
     5
 74
     0
 42
0.000000001
 43
0.00000001
 40
0.0
 40
0.0
 40
0.0
 40
0.0
 40
0.5736392582027335
 40
1.0
 40
1.0
 40
1.0
 40
1.0
 10
6.547378659428467
 20
3.299077659680726
 30
0.0
 10
6.551793418400282
 20
3.292250862830994
 30
0.0
 10
6.559489472860792
 20
3.280350009198485
 30
0.0
 10
6.562597761584007
 20
3.266974179087289
 30
0.0
 10
6.563923013869757
 20
3.261271250238925
 30
0.0
  0
ARC
  5
175
330
1F
100
AcDbEntity
  8
0
  6
Continuous
 62
     7
370
    15
100
AcDbCircle
 10
6.5334511007
 20
3.2548636675
 30
0.0
 40
0.0311383141694604
100
AcDbArc
 50
292.4169742961
 51
11.8750513881
  0
ARC
  5
176
330
1F
100
AcDbEntity
  8
0
  6
Continuous
 62
     7
370
    15
100
AcDbCircle
 10
6.3011637159
 20
3.8553271108
 30
0.0
 40
0.6749584816215103
100
AcDbArc
 50
279.9278212477
 51
291.2073052405
  0
LWPOLYLINE
  5
177
330
1F
100
AcDbEntity
  8
0
  6
Continuous
 62
     7
370
    15
100
AcDbPolyline
 90
       16
 70
   128
 43
0.0
 10
5.8387509676
 20
4.393146921
 10
5.8288366345
 20
4.401153601
 10
5.8145968738
 20
4.4109138351
 10
5.7996305675
 20
4.4192727322
 10
5.78409129
 20
4.4261445189
 10
5.7681384955
 20
4.4314586812
 10
5.7519358811
 20
4.4351606886
 10
5.7356497077
 20
4.4372125536
 10
5.7194470933
 20
4.4375932212
 10
5.7034942987
 20
4.4362987853
 10
5.6879550213
 20
4.4333425286
 10
5.672988715
 20
4.4287547861
 10
5.6587489543
 20
4.4225826345
 10
5.6453818585
 20
4.4148894083
 10
5.6330245921
 20
4.4057540503
 10
5.6301081677
 20
4.403255551
  0
LWPOLYLINE
  5
178
330
1F
100
AcDbEntity
  8
0
  6
Continuous
 62
     7
370
    15
100
AcDbPolyline
 90
       25
 70
   128
 43
0.0
 10
6.815921296
 20
4.1392738064
 10
6.8150964148
 20
4.1557715832
 10
6.8126302358
 20
4.1723079209
 10
6.8085480652
 20
4.1887131345
 10
6.8028917916
 20
4.2048188841
 10
6.795719456
 20
4.2204599031
 10
6.7871046564
 20
4.2354756933
 10
6.7771357922
 20
4.2497121726
 10
6.7659151574
 20
4.2630232552
 10
6.753557891
 20
4.2752723516
 10
6.7401907952
 20
4.2863337694
 10
6.7259510346
 20
4.2960940035
 10
6.7109847282
 20
4.3044529006
 10
6.6954454508
 20
4.3113246872
 10
6.6794926562
 20
4.3166388495
 10
6.6632900419
 20
4.320340857
 10
6.6470038684
 20
4.3223927219
 10
6.630801254
 20
4.3227733896
 10
6.6148484595
 20
4.3214789537
 10
6.599309182
 20
4.3185226969
 10
6.5843428757
 20
4.3139349545
 10
6.570103115
 20
4.3077628029
 10
6.5567360193
 20
4.3000695766
 10
6.5443787529
 20
4.2909342187
 10
6.5414623285
 20
4.2884357194
  0
ARC
  5
179
330
1F
100
AcDbEntity
  8
0
  6
Continuous
 62
     7
370
    15
100
AcDbCircle
 10
6.6728179065
 20
4.1367657858
 30
0.0
 40
0.1431253654774259
100
AcDbArc
 50
312.1316354078
 51
1.0040592708
  0
LWPOLYLINE
  5
17A
330
1F
100
AcDbEntity
  8
0
  6
Continuous
 62
     7
370
    15
100
AcDbPolyline
 90
       25
 70
   128
 43
0.0
 10
6.3602442156
 20
4.4618487652
 10
6.3594193345
 20
4.4783465419
 10
6.3569531554
 20
4.4948828797
 10
6.3528709848
 20
4.5112880932
 10
6.3472147112
 20
4.5273938429
 10
6.3400423756
 20
4.5430348618
 10
6.331427576
 20
4.5580506521
 10
6.3214587118
 20
4.5722871313
 10
6.310238077
 20
4.585598214
 10
6.2978808106
 20
4.5978473104
 10
6.2845137148
 20
4.6089087282
 10
6.2702739542
 20
4.6186689622
 10
6.2553076479
 20
4.6270278594
 10
6.2397683704
 20
4.633899646
 10
6.2238155759
 20
4.6392138083
 10
6.2076129615
 20
4.6429158157
 10
6.191326788
 20
4.6449676807
 10
6.1751241736
 20
4.6453483483
 10
6.1591713791
 20
4.6440539124
 10
6.1436321017
 20
4.6410976557
 10
6.1286657953
 20
4.6365099133
 10
6.1144260347
 20
4.6303377616
 10
6.1010589389
 20
4.6226445354
 10
6.0887016725
 20
4.6135091775
 10
6.0857852481
 20
4.6110106782
  0
ARC
  5
17B
330
1F
100
AcDbEntity
  8
0
  6
Continuous
 62
     7
370
    15
100
AcDbCircle
 10
6.2171408261
 20
4.4593407446
 30
0.0
 40
0.1431253654774286
100
AcDbArc
 50
312.1316354078
 51
1.0040592708
  0
ARC
  5
17C
330
1F
100
AcDbEntity
  8
0
  6
Continuous
 62
     7
370
    15
100
AcDbCircle
 10
6.1930742878
 20
3.9557696649
 30
0.0
 40
0.0555346926008903
100
AcDbArc
 50
61.4848792293
 51
121.5392609575
  0
LWPOLYLINE
  5
17D
330
1F
100
AcDbEntity
  8
0
  6
Continuous
 62
     7
370
    15
100
AcDbPolyline
 90
       25
 70
   128
 43
0.0
 10
6.815921296
 20
3.6089437205
 10
6.8150964148
 20
3.6254414973
 10
6.8126302358
 20
3.641977835
 10
6.8085480652
 20
3.6583830486
 10
6.8028917916
 20
3.6744887982
 10
6.795719456
 20
3.6901298172
 10
6.7871046564
 20
3.7051456074
 10
6.7771357922
 20
3.7193820867
 10
6.7659151574
 20
3.7326931693
 10
6.753557891
 20
3.7449422657
 10
6.7401907952
 20
3.7560036835
 10
6.7259510346
 20
3.7657639176
 10
6.7109847282
 20
3.7741228147
 10
6.6954454508
 20
3.7809946013
 10
6.6794926562
 20
3.7863087636
 10
6.6632900419
 20
3.790010771
 10
6.6470038684
 20
3.792062636
 10
6.630801254
 20
3.7924433037
 10
6.6148484595
 20
3.7911488678
 10
6.599309182
 20
3.788192611
 10
6.5843428757
 20
3.7836048686
 10
6.570103115
 20
3.7774327169
 10
6.5567360193
 20
3.7697394907
 10
6.5443787529
 20
3.7606041328
 10
6.5414623285
 20
3.7581056335
  0
ARC
  5
17E
330
1F
100
AcDbEntity
  8
0
  6
Continuous
 62
     7
370
    15
100
AcDbCircle
 10
6.6728179065
 20
3.6064356999
 30
0.0
 40
0.1431253654774252
100
AcDbArc
 50
312.1316354078
 51
1.0040592708
  0
LINE
  5
17F
330
1F
100
AcDbEntity
  8
0
  6
Continuous
 62
     7
370
    15
100
AcDbLine
 10
6.6236925028
 20
4.5524118792
 30
0.0
 11
6.6126439593
 21
4.5426679798
 31
0.0
  0
LINE
  5
180
330
1F
100
AcDbEntity
  8
0
  6
Continuous
 62
     7
370
    15
100
AcDbLine
 10
6.933715875
 20
4.0570834883
 30
0.0
 11
6.9447644185
 21
4.0668273878
 31
0.0
  0
ARC
  5
181
330
1F
100
AcDbEntity
  8
0
  6
Continuous
 62
     7
370
    15
100
AcDbCircle
 10
6.0678673035
 20
3.8359565468
 30
0.0
 40
0.9067799597826298
100
AcDbArc
 50
14.7501892595
 51
52.1957323942
  0
LINE
  5
182
330
1F
100
AcDbEntity
  8
0
  6
Continuous
 62
     7
370
    15
100
AcDbLine
 10
6.5710930994
 20
4.5453681536
 30
0.0
 11
6.5821416428
 21
4.555112053
 31
0.0
  0
ARC
  5
183
330
1F
100
AcDbEntity
  8
0
  6
Continuous
 62
     7
370
    15
100
AcDbCircle
 10
6.60110446
 20
4.5258690866
 30
0.0
 40
0.0348531134278326
100
AcDbArc
 50
49.6020585581
 51
122.9616894542
  0
LINE
  5
184
330
1F
100
AcDbEntity
  8
0
  6
Continuous
 62
     7
370
    15
100
AcDbLine
 10
6.5777880837
 20
4.5510161948
 30
0.0
 11
6.5821416428
 21
4.555112053
 31
0.0
  0
LINE
  5
185
330
1F
100
AcDbEntity
  8
0
  6
Continuous
 62
     7
370
    15
100
AcDbLine
 10
6.4720251915
 20
4.536683317
 30
0.0
 11
6.4609766481
 21
4.5269394175
 31
0.0
  0
LINE
  5
186
330
1F
100
AcDbEntity
  8
0
  6
Continuous
 62
     7
370
    15
100
AcDbLine
 10
6.4264037292
 20
4.6615047176
 30
0.0
 11
6.4153551857
 21
4.6517608182
 31
0.0
  0
SPLINE
  5
187
330
1F
100
AcDbEntity
  8
0
  6
Continuous
 62
     7
370
    15
100
AcDbSpline
210
0.0
220
0.0
230
1.0
 70
     8
 71
     3
 72
    11
 73
     7
 74
     0
 42
0.000000001
 43
0.00000001
 40
0.0
 40
0.0
 40
0.0
 40
0.0
 40
0.270961667408094
 40
0.5444933586610521
 40
0.7669211993742524
 40
1.0
 40
1.0
 40
1.0
 40
1.0
 10
6.472025191517592
 20
4.536683316983236
 30
0.0
 10
6.47087060532883
 20
4.548506965988708
 30
0.0
 10
6.468550481904006
 20
4.572266409234691
 30
0.0
 10
6.457750048820212
 20
4.605181696849992
 30
0.0
 10
6.443652395508993
 20
4.635150956001255
 30
0.0
 10
6.432242218087518
 20
4.652584251423789
 30
0.0
 10
6.426403729189735
 20
4.661504717602052
 30
0.0
  0
LINE
  5
188
330
1F
100
AcDbEntity
  8
0
  6
Continuous
 62
     7
370
    15
100
AcDbLine
 10
5.8646627748
 20
4.6872142048
 30
0.0
 11
5.8536142313
 21
4.6774703053
 31
0.0
  0
LINE
  5
189
330
1F
100
AcDbEntity
  8
0
  6
Continuous
 62
     7
370
    15
100
AcDbLine
 10
6.3966233263
 20
4.6667455179
 30
0.0
 11
6.4076718698
 21
4.6764894174
 31
0.0
  0
LWPOLYLINE
  5
18A
330
1F
100
AcDbEntity
  8
0
  6
Continuous
 62
     7
370
    15
100
AcDbPolyline
 90
       16
 70
   128
 43
0.0
 10
6.4076718698
 20
4.6764894174
 10
6.3714910041
 20
4.6898911121
 10
6.3349238851
 20
4.7015450781
 10
6.2980582556
 20
4.711423352
 10
6.2609825745
 20
4.7195022306
 10
6.2237858048
 20
4.7257623288
 10
6.1865572
 20
4.7301886255
 10
6.1493860901
 20
4.7327704999
 10
6.1123616671
 20
4.7335017566
 10
6.0755727709
 20
4.7323806411
 10
6.0391076764
 20
4.7294098435
 10
6.0030538815
 20
4.7245964922
 10
5.9674978971
 20
4.7179521368
 10
5.9325250398
 20
4.7094927205
 10
5.8982192268
 20
4.6992385415
 10
5.8646627748
 20
4.6872142048
  0
LWPOLYLINE
  5
18B
330
1F
100
AcDbEntity
  8
0
  6
Continuous
 62
     7
370
    15
100
AcDbPolyline
 90
       13
 70
   128
 43
0.0
 10
6.4720251915
 20
4.536683317
 10
6.4728677098
 20
4.527955314
 10
6.4753628873
 20
4.5193504287
 10
6.4794148357
 20
4.5111993419
 10
6.4848678408
 20
4.5038152953
 10
6.4915123468
 20
4.4974820536
 10
6.499093009
 20
4.4924429999
 10
6.5073185069
 20
4.488891782
 10
6.515872739
 20
4.4869648714
 10
6.5244269712
 20
4.4867363181
 10
6.532652469
 20
4.4882149053
 10
6.5402331312
 20
4.4913438118
 10
6.5408572551
 20
4.4916933818
  0
ARC
  5
18C
330
1F
100
AcDbEntity
  8
0
  6
Continuous
 62
     7
370
    15
100
AcDbCircle
 10
6.3920810042
 20
4.6377994334
 30
0.0
 40
0.0417131867745222
100
AcDbArc
 50
34.6312305715
 51
68.0520914111
  0
LINE
  5
18D
330
1F
100
AcDbEntity
  8
0
  6
Continuous
 62
     7
370
    15
100
AcDbLine
 10
6.9432827837
 20
4.0443511952
 30
0.0
 11
6.9322342403
 21
4.0346072958
 31
0.0
  0
ARC
  5
18E
330
1F
100
AcDbEntity
  8
0
  6
Continuous
 62
     7
370
    15
100
AcDbCircle
 10
6.9112006343
 20
4.0577529875
 30
0.0
 40
0.0347688416376045
100
AcDbArc
 50
337.3280663167
 51
15.1289504876
  0
SPLINE
  5
18F
330
1F
100
AcDbEntity
  8
0
  6
Continuous
 62
     7
370
    15
100
AcDbSpline
210
0.0
220
0.0
230
1.0
 70
     8
 71
     3
 72
    10
 73
     6
 74
     0
 42
0.000000001
 43
0.00000001
 40
0.0
 40
0.0
 40
0.0
 40
0.0
 40
0.3291786791791532
 40
0.6567465439548705
 40
1.0
 40
1.0
 40
1.0
 40
1.0
 10
6.895545885913804
 20
3.977404187638345
 30
0.0
 10
6.902169916462583
 20
3.983567175357051
 30
0.0
 10
6.91538556329855
 20
3.995862992615902
 30
0.0
 10
6.931063746199587
 20
4.018814504183801
 30
0.0
 10
6.939146770341464
 20
4.035707298667676
 30
0.0
 10
6.943282783741574
 20
4.044351195199996
 30
0.0
  0
LINE
  5
190
330
1F
100
AcDbEntity
  8
0
  6
Continuous
 62
     7
370
    15
100
AcDbLine
 10
6.9076290712
 20
3.8729380909
 30
0.0
 11
6.8965805277
 21
3.8631941915
 31
0.0
  0
LWPOLYLINE
  5
191
330
1F
100
AcDbEntity
  8
0
  6
Continuous
 62
     7
370
    15
100
AcDbPolyline
 90
       15
 70
   128
 43
0.0
 10
6.8496722379
 20
3.943695268
 10
6.8463796273
 20
3.938474656
 10
6.8433518189
 20
3.9307478346
 10
6.8419516309
 20
3.9223763851
 10
6.8422328718
 20
3.9136820176
 10
6.8441847336
 20
3.9049988518
 10
6.8477322074
 20
3.8966605768
 10
6.8527389658
 20
3.8889876279
 10
6.8590126018
 20
3.8822748722
 10
6.8663120231
 20
3.8767802771
 10
6.8743567171
 20
3.8727149969
 10
6.8828375306
 20
3.870235258
 10
6.8914285509
 20
3.8694363553
 10
6.8997996297
 20
3.8703489903
 10
6.9076290712
 20
3.8729380909
  0
LINE
  5
192
330
1F
100
AcDbEntity
  8
0
  6
Continuous
 62
     7
370
    15
100
AcDbLine
 10
6.9695481462
 20
3.8267159162
 30
0.0
 11
6.9584996027
 21
3.8169720167
 31
0.0
  0
LINE
  5
193
330
1F
100
AcDbEntity
  8
0
  6
Continuous
 62
     7
370
    15
100
AcDbLine
 10
6.9355462385
 20
3.8548650615
 30
0.0
 11
6.946594782
 21
3.864608961
 31
0.0
  0
ARC
  5
194
330
1F
100
AcDbEntity
  8
0
  6
Continuous
 62
     7
370
    15
100
AcDbCircle
 10
6.928587242
 20
3.8278026415
 30
0.0
 40
0.040975317502036
100
AcDbArc
 50
358.4802539068
 51
63.9297476462
  0
SPLINE
  5
195
330
1F
100
AcDbEntity
  8
0
  6
Continuous
 62
     7
370
    15
100
AcDbSpline
210
0.0
220
0.0
230
1.0
 70
     8
 71
     3
 72
     9
 73
     5
 74
     0
 42
0.000000001
 43
0.00000001
 40
0.0
 40
0.0
 40
0.0
 40
0.0
 40
0.5736392582027355
 40
1.0
 40
1.0
 40
1.0
 40
1.0
 10
6.907629071193483
 20
3.872938090940574
 30
0.0
 10
6.91522434774912
 20
3.872699398845425
 30
0.0
 10
6.928464858134399
 20
3.872283297451152
 30
0.0
 10
6.941175474240526
 20
3.866902935904759
 30
0.0
 10
6.946594781952236
 20
3.864608960964702
 30
0.0
  0
LWPOLYLINE
  5
196
330
1F
100
AcDbEntity
  8
0
  6
Continuous
 62
     7
370
    15
100
AcDbPolyline
 90
       16
 70
   128
 43
0.0
 10
6.7476109669
 20
3.3518562121
 10
6.7732998837
 20
3.3757792945
 10
6.797638408
 20
3.4011078558
 10
6.8205681396
 20
3.4277811202
 10
6.8420340586
 20
3.4557350853
 10
6.8619846576
 20
3.4849026757
 10
6.8803720653
 20
3.5152139037
 10
6.897152161
 20
3.5465960378
 10
6.9122846811
 20
3.5789737764
 10
6.925733315
 20
3.6122694294
 10
6.9374657928
 20
3.646403104
 10
6.9474539625
 20
3.6812928964
 10
6.9556738574
 20
3.7168550887
 10
6.962105754
 20
3.7530043496
 10
6.9667342189
 20
3.7896539389
 10
6.9695481462
 20
3.8267159162
  0
LWPOLYLINE
  5
197
330
1F
100
AcDbEntity
  8
0
  6
Continuous
 62
     7
370
    15
100
AcDbPolyline
 90
        3
 70
   128
 43
0.0
 10
5.8558214244
 20
4.6818455449
 10
5.8599241468
 20
4.6848708694
 10
5.8646627748
 20
4.6872142048
  0
LINE
  5
198
330
1F
100
AcDbEntity
  8
0
  6
Continuous
 62
     7
370
    15
100
AcDbLine
 10
5.818762086
 20
4.5431926416
 30
0.0
 11
5.8077135426
 21
4.5334487421
 31
0.0
  0
ARC
  5
199
330
1F
100
AcDbEntity
  8
0
  6
Continuous
 62
     7
370
    15
100
AcDbCircle
 10
5.845313294
 20
4.577952546
 30
0.0
 40
0.0437403429792247
100
AcDbArc
 50
232.6257506407
 51
297.7365952457
  0
LINE
  5
19A
330
1F
100
AcDbEntity
  8
0
  6
Continuous
 62
     7
370
    15
100
AcDbLine
 10
5.6936393637
 20
4.5786717641
 30
0.0
 11
5.6825908202
 21
4.5689278647
 31
0.0
  0
SPLINE
  5
19B
330
1F
100
AcDbEntity
  8
0
  6
Continuous
 62
     7
370
    15
100
AcDbSpline
210
0.0
220
0.0
230
1.0
 70
     8
 71
     3
 72
    11
 73
     7
 74
     0
 42
0.000000001
 43
0.00000001
 40
0.0
 40
0.0
 40
0.0
 40
0.0
 40
0.2709616674080945
 40
0.5444933586610519
 40
0.7669211993742516
 40
1.0
 40
1.0
 40
1.0
 40
1.0
 10
5.818762086038269
 20
4.543192641568212
 30
0.0
 10
5.808150511835429
 20
4.549360861211885
 30
0.0
 10
5.78682671451142
 20
4.561755804979648
 30
0.0
 10
5.75431377970572
 20
4.57220193932437
 30
0.0
 10
5.723040494052729
 20
4.577933123206728
 30
0.0
 10
5.703591331551239
 20
4.578421742076404
 30
0.0
 10
5.693639363659625
 20
4.578671764117295
 30
0.0
  0
LINE
  5
19C
330
1F
100
AcDbEntity
  8
0
  6
Continuous
 62
     7
370
    15
100
AcDbLine
 10
5.6623773261
 20
4.5614363719
 30
0.0
 11
5.6734258696
 21
4.5711802713
 31
0.0
  0
ARC
  5
19D
330
1F
100
AcDbEntity
  8
0
  6
Continuous
 62
     7
370
    15
100
AcDbCircle
 10
5.6935091934
 20
4.5480072872
 30
0.0
 40
0.0306647531601418
100
AcDbArc
 50
89.7567816591
 51
130.9144834178
  0
LINE
  5
19E
330
1F
100
AcDbEntity
  8
0
  6
Continuous
 62
     7
370
    15
100
AcDbLine
 10
6.5584272029
 20
3.3088215591
 30
0.0
 11
6.5473786594
 21
3.2990776597
 31
0.0
  0
LINE
  5
19F
330
1F
100
AcDbEntity
  8
0
  6
Continuous
 62
     7
370
    15
100
AcDbLine
 10
6.5548586834
 20
3.3115867747
 30
0.0
 11
6.5584272029
 21
3.3088215591
 31
0.0
  0
LINE
  5
1A0
330
1F
100
AcDbEntity
  8
0
  6
Continuous
 62
     7
370
    15
100
AcDbLine
 10
6.5639230139
 20
3.2612712502
 30
0.0
 11
6.5749715573
 21
3.2710151497
 31
0.0
  0
SPLINE
  5
1A1
330
1F
100
AcDbEntity
  8
0
  6
Continuous
 62
     7
370
    15
100
AcDbSpline
210
0.0
220
0.0
230
1.0
 70
     8
 71
     3
 72
     9
 73
     5
 74
     0
 42
0.000000001
 43
0.00000001
 40
0.0
 40
0.0
 40
0.0
 40
0.0
 40
0.5736392582027335
 40
1.0
 40
1.0
 40
1.0
 40
1.0
 10
6.558427202881972
 20
3.308821559123451
 30
0.0
 10
6.562841961853787
 20
3.301994762273719
 30
0.0
 10
6.570538016314297
 20
3.29009390864121
 30
0.0
 10
6.573646305037512
 20
3.276718078530014
 30
0.0
 10
6.574971557323262
 20
3.27101514968165
 30
0.0
  0
ARC
  5
1A2
330
1F
100
AcDbEntity
  8
0
  6
Continuous
 62
     7
370
    15
100
AcDbCircle
 10
6.5438778401
 20
3.2646787491
 30
0.0
 40
0.0317327783395553
100
AcDbArc
 50
312.2536712101
 51
11.5182457909
  0
MTEXT
  5
1A4
330
1F
100
AcDbEntity
  8
0
  6
Continuous
 62
     7
100
AcDbMText
 10
0.0
 20
0.4101324111
 30
0.0
 40
0.14705
 41
0.0
 71
     1
 72
     1
  1
SOLIDWORKS Educational Product.
  7
SLDTEXTSTYLE0
 73
     1
 44
1.0
  0
MTEXT
  5
1A5
330
1F
100
AcDbEntity
  8
0
  6
Continuous
 62
     7
100
AcDbMText
 10
0.0
 20
0.1895574111
 30
0.0
 40
0.14705
 41
0.0
 71
     1
 72
     1
  1
For Instructional Use Only.
  7
SLDTEXTSTYLE0
 73
     1
 44
1.0
  0
ENDSEC
  0
SECTION
  2
OBJECTS
  0
DICTIONARY
  5
C
330
0
100
AcDbDictionary
281
     1
  3
ACAD_GROUP
350
D
  3
ACAD_LAYOUT
350
1A
  3
ACAD_MLINESTYLE
350
17
  3
ACAD_PLOTSETTINGS
350
19
  3
ACAD_PLOTSTYLENAME
350
E
  3
ACAD_SCALELIST
350
47
  0
DICTIONARY
  5
D
102
{ACAD_REACTORS
330
C
102
}
330
C
100
AcDbDictionary
281
     1
  0
DICTIONARY
  5
1A
102
{ACAD_REACTORS
330
C
102
}
330
C
100
AcDbDictionary
281
     1
  3
Layout1
350
1E
  3
Layout2
350
26
  3
Model
350
22
  0
DICTIONARY
  5
17
102
{ACAD_REACTORS
330
C
102
}
330
C
100
AcDbDictionary
281
     1
  3
Standard
350
18
  0
DICTIONARY
  5
19
102
{ACAD_REACTORS
330
C
102
}
330
C
100
AcDbDictionary
281
     1
  0
ACDBDICTIONARYWDFLT
  5
E
102
{ACAD_REACTORS
330
C
102
}
330
C
100
AcDbDictionary
281
     1
  3
Normal
350
F
100
AcDbDictionaryWithDefault
340
F
  0
DICTIONARY
  5
47
102
{ACAD_REACTORS
330
C
102
}
330
C
100
AcDbDictionary
281
     1
  3
A0
350
48
  3
A1
350
49
  3
A2
350
4A
  3
A3
350
4B
  3
A4
350
4C
  3
A5
350
4D
  3
A6
350
4E
  3
A7
350
4F
  3
A8
350
50
  3
A9
350
51
  3
B0
350
52
  3
B1
350
53
  3
B2
350
54
  3
B3
350
55
  3
B4
350
56
  3
B5
350
57
  3
B6
350
58
  3
B7
350
59
  3
B8
350
5A
  3
B9
350
5B
  3
C0
350
5C
  3
C1
350
5D
  3
C2
350
5E
  3
C3
350
5F
  3
C4
350
60
  3
C5
350
61
  3
C6
350
62
  3
C7
350
63
  3
C8
350
64
  3
C9
350
65
  3
D0
350
66
  3
D1
350
67
  3
D2
350
68
  0
LAYOUT
  5
1E
102
{ACAD_REACTORS
330
1A
102
}
330
1A
100
AcDbPlotSettings
  1

  2
none_device
  4

  6

 40
0.0
 41
0.0
 42
0.0
 43
0.0
 44
0.0
 45
0.0
 46
0.0
 47
0.0
 48
0.0
 49
0.0
140
0.0
141
0.0
142
1.0
143
1.0
 70
   688
 72
     0
 73
     0
 74
     5
  7

 75
    16
147
1.0
148
0.0
149
0.0
100
AcDbLayout
  1
Layout1
 70
     1
 71
     1
 10
0.0
 20
0.0
 11
12.0
 21
9.0
 12
0.0
 22
0.0
 32
0.0
 14
1.0000000000E+20
 24
1.0000000000E+20
 34
1.0000000000E+20
 15
-1.0000000000E+20
 25
-1.0000000000E+20
 35
-1.0000000000E+20
146
0.0
 13
0.0
 23
0.0
 33
0.0
 16
1.0
 26
0.0
 36
0.0
 17
0.0
 27
1.0
 37
0.0
 76
     0
330
1B
  0
LAYOUT
  5
26
102
{ACAD_REACTORS
330
1A
102
}
330
1A
100
AcDbPlotSettings
  1

  2
none_device
  4

  6

 40
0.0
 41
0.0
 42
0.0
 43
0.0
 44
0.0
 45
0.0
 46
0.0
 47
0.0
 48
0.0
 49
0.0
140
0.0
141
0.0
142
1.0
143
1.0
 70
   688
 72
     0
 73
     0
 74
     5
  7

 75
    16
147
1.0
148
0.0
149
0.0
100
AcDbLayout
  1
Layout2
 70
     1
 71
     2
 10
0.0
 20
0.0
 11
0.0
 21
0.0
 12
0.0
 22
0.0
 32
0.0
 14
0.0
 24
0.0
 34
0.0
 15
0.0
 25
0.0
 35
0.0
146
0.0
 13
0.0
 23
0.0
 33
0.0
 16
1.0
 26
0.0
 36
0.0
 17
0.0
 27
1.0
 37
0.0
 76
     0
330
23
  0
LAYOUT
  5
22
102
{ACAD_REACTORS
330
1A
102
}
330
1A
100
AcDbPlotSettings
  1

  2
none_device
  4
Letter_(8.50_x_11.00_Inches)
  6

 40
6.35
 41
6.35
 42
6.35000508
 43
6.35000508
 44
215.9
 45
279.4
 46
0.0
 47
0.0
 48
0.0
 49
0.0
140
0.0
141
0.0
142
1.0
143
1.0
 70
  1712
 72
     0
 73
     0
 74
     0
  7

 75
     0
147
1.0
148
0.0
149
0.0
100
AcDbLayout
  1
Model
 70
     1
 71
     0
 10
0.0
 20
0.0
 11
11.0
 21
8.5
 12
0.0
 22
0.0
 32
0.0
 14
0.0
 24
0.0
 34
0.0
 15
11.0
 25
8.5
 35
0.0
146
0.0
 13
0.0
 23
0.0
 33
0.0
 16
1.0
 26
0.0
 36
0.0
 17
0.0
 27
1.0
 37
0.0
 76
     0
330
1F
331
29
  0
MLINESTYLE
  5
18
102
{ACAD_REACTORS
330
17
102
}
330
17
100
AcDbMlineStyle
  2
Standard
 70
     0
  3

 62
   256
 51
90.0
 52
90.0
 71
     2
 49
0.5
 62
   256
  6
BYLAYER
 49
-0.5
 62
   256
  6
BYLAYER
  0
ACDBPLACEHOLDER
  5
F
102
{ACAD_REACTORS
330
E
102
}
330
E
  0
SCALE
  5
48
102
{ACAD_REACTORS
330
47
102
}
330
47
100
AcDbScale
 70
     0
300
1:1
140
1.0
141
1.0
290
     1
  0
SCALE
  5
49
102
{ACAD_REACTORS
330
47
102
}
330
47
100
AcDbScale
 70
     0
300
1:2
140
1.0
141
2.0
290
     0
  0
SCALE
  5
4A
102
{ACAD_REACTORS
330
47
102
}
330
47
100
AcDbScale
 70
     0
300
1:4
140
1.0
141
4.0
290
     0
  0
SCALE
  5
4B
102
{ACAD_REACTORS
330
47
102
}
330
47
100
AcDbScale
 70
     0
300
1:5
140
1.0
141
5.0
290
     0
  0
SCALE
  5
4C
102
{ACAD_REACTORS
330
47
102
}
330
47
100
AcDbScale
 70
     0
300
1:8
140
1.0
141
8.0
290
     0
  0
SCALE
  5
4D
102
{ACAD_REACTORS
330
47
102
}
330
47
100
AcDbScale
 70
     0
300
1:10
140
1.0
141
10.0
290
     0
  0
SCALE
  5
4E
102
{ACAD_REACTORS
330
47
102
}
330
47
100
AcDbScale
 70
     0
300
1:16
140
1.0
141
16.0
290
     0
  0
SCALE
  5
4F
102
{ACAD_REACTORS
330
47
102
}
330
47
100
AcDbScale
 70
     0
300
1:20
140
1.0
141
20.0
290
     0
  0
SCALE
  5
50
102
{ACAD_REACTORS
330
47
102
}
330
47
100
AcDbScale
 70
     0
300
1:30
140
1.0
141
30.0
290
     0
  0
SCALE
  5
51
102
{ACAD_REACTORS
330
47
102
}
330
47
100
AcDbScale
 70
     0
300
1:40
140
1.0
141
40.0
290
     0
  0
SCALE
  5
52
102
{ACAD_REACTORS
330
47
102
}
330
47
100
AcDbScale
 70
     0
300
1:50
140
1.0
141
50.0
290
     0
  0
SCALE
  5
53
102
{ACAD_REACTORS
330
47
102
}
330
47
100
AcDbScale
 70
     0
300
1:100
140
1.0
141
100.0
290
     0
  0
SCALE
  5
54
102
{ACAD_REACTORS
330
47
102
}
330
47
100
AcDbScale
 70
     0
300
2:1
140
2.0
141
1.0
290
     0
  0
SCALE
  5
55
102
{ACAD_REACTORS
330
47
102
}
330
47
100
AcDbScale
 70
     0
300
4:1
140
4.0
141
1.0
290
     0
  0
SCALE
  5
56
102
{ACAD_REACTORS
330
47
102
}
330
47
100
AcDbScale
 70
     0
300
8:1
140
8.0
141
1.0
290
     0
  0
SCALE
  5
57
102
{ACAD_REACTORS
330
47
102
}
330
47
100
AcDbScale
 70
     0
300
10:1
140
10.0
141
1.0
290
     0
  0
SCALE
  5
58
102
{ACAD_REACTORS
330
47
102
}
330
47
100
AcDbScale
 70
     0
300
100:1
140
100.0
141
1.0
290
     0
  0
SCALE
  5
59
102
{ACAD_REACTORS
330
47
102
}
330
47
100
AcDbScale
 70
     0
300
1/128" = 1'-0"
140
0.0078125
141
12.0
290
     0
  0
SCALE
  5
5A
102
{ACAD_REACTORS
330
47
102
}
330
47
100
AcDbScale
 70
     0
300
1/64" = 1'-0"
140
0.015625
141
12.0
290
     0
  0
SCALE
  5
5B
102
{ACAD_REACTORS
330
47
102
}
330
47
100
AcDbScale
 70
     0
300
1/32" = 1'-0"
140
0.03125
141
12.0
290
     0
  0
SCALE
  5
5C
102
{ACAD_REACTORS
330
47
102
}
330
47
100
AcDbScale
 70
     0
300
1/16" = 1'-0"
140
0.0625
141
12.0
290
     0
  0
SCALE
  5
5D
102
{ACAD_REACTORS
330
47
102
}
330
47
100
AcDbScale
 70
     0
300
3/32" = 1'-0"
140
0.09375
141
12.0
290
     0
  0
SCALE
  5
5E
102
{ACAD_REACTORS
330
47
102
}
330
47
100
AcDbScale
 70
     0
300
1/8" = 1'-0"
140
0.125
141
12.0
290
     0
  0
SCALE
  5
5F
102
{ACAD_REACTORS
330
47
102
}
330
47
100
AcDbScale
 70
     0
300
3/16" = 1'-0"
140
0.1875
141
12.0
290
     0
  0
SCALE
  5
60
102
{ACAD_REACTORS
330
47
102
}
330
47
100
AcDbScale
 70
     0
300
1/4" = 1'-0"
140
0.25
141
12.0
290
     0
  0
SCALE
  5
61
102
{ACAD_REACTORS
330
47
102
}
330
47
100
AcDbScale
 70
     0
300
3/8" = 1'-0"
140
0.375
141
12.0
290
     0
  0
SCALE
  5
62
102
{ACAD_REACTORS
330
47
102
}
330
47
100
AcDbScale
 70
     0
300
1/2" = 1'-0"
140
0.5
141
12.0
290
     0
  0
SCALE
  5
63
102
{ACAD_REACTORS
330
47
102
}
330
47
100
AcDbScale
 70
     0
300
3/4" = 1'-0"
140
0.75
141
12.0
290
     0
  0
SCALE
  5
64
102
{ACAD_REACTORS
330
47
102
}
330
47
100
AcDbScale
 70
     0
300
1" = 1'-0"
140
1.0
141
12.0
290
     0
  0
SCALE
  5
65
102
{ACAD_REACTORS
330
47
102
}
330
47
100
AcDbScale
 70
     0
300
1-1/2" = 1'-0"
140
1.5
141
12.0
290
     0
  0
SCALE
  5
66
102
{ACAD_REACTORS
330
47
102
}
330
47
100
AcDbScale
 70
     0
300
3" = 1'-0"
140
3.0
141
12.0
290
     0
  0
SCALE
  5
67
102
{ACAD_REACTORS
330
47
102
}
330
47
100
AcDbScale
 70
     0
300
6" = 1'-0"
140
6.0
141
12.0
290
     0
  0
SCALE
  5
68
102
{ACAD_REACTORS
330
47
102
}
330
47
100
AcDbScale
 70
     0
300
1'-0" = 1'-0"
140
12.0
141
12.0
290
     0
  0
ENDSEC
  0
EOF
